<?xml version="1.0" encoding="UTF-8" standalone="no"?>
<!-- Created with Inkscape (http://www.inkscape.org/) -->

<svg
   xmlns:dc="http://purl.org/dc/elements/1.1/"
   xmlns:cc="http://creativecommons.org/ns#"
   xmlns:rdf="http://www.w3.org/1999/02/22-rdf-syntax-ns#"
   xmlns:svg="http://www.w3.org/2000/svg"
   xmlns="http://www.w3.org/2000/svg"
   xmlns:sodipodi="http://sodipodi.sourceforge.net/DTD/sodipodi-0.dtd"
   xmlns:inkscape="http://www.inkscape.org/namespaces/inkscape"
   version="1.1"
   id="svg2"
   xml:space="preserve"
   width="614.40002"
   height="460.79999"
   viewBox="0 0 614.40002 460.79999"
   sodipodi:docname="nyquist_annotated.svg"
   inkscape:version="0.92.5 (2060ec1f9f, 2020-04-08)"><metadata
     id="metadata8"><rdf:RDF><cc:Work
         rdf:about=""><dc:format>image/svg+xml</dc:format><dc:type
           rdf:resource="http://purl.org/dc/dcmitype/StillImage" /><dc:title></dc:title></cc:Work></rdf:RDF></metadata><defs
     id="defs6"><marker
       inkscape:stockid="Arrow1Mend"
       orient="auto"
       refY="0.0"
       refX="0.0"
       id="marker2952"
       style="overflow:visible;"
       inkscape:isstock="true"><path
         id="path2950"
         d="M 0.0,0.0 L 5.0,-5.0 L -12.5,0.0 L 5.0,5.0 L 0.0,0.0 z "
         style="fill-rule:evenodd;stroke:#000000;stroke-width:1pt;stroke-opacity:1;fill:#000000;fill-opacity:1"
         transform="scale(0.4) rotate(180) translate(10,0)" /></marker><clipPath
       clipPathUnits="userSpaceOnUse"
       id="clipPath94"><path
         d="M -1016,-351 H 1660 V 1068 H -1016 Z"
         id="path92"
         inkscape:connector-curvature="0" /></clipPath><clipPath
       clipPathUnits="userSpaceOnUse"
       id="clipPath114"><path
         d="M -1021,-463 H 1794 V 1233 H -1021 Z"
         id="path112"
         inkscape:connector-curvature="0" /></clipPath><clipPath
       clipPathUnits="userSpaceOnUse"
       id="clipPath204"><path
         d="M -1016,-351 H 1660 V 1068 H -1016 Z"
         id="path202"
         inkscape:connector-curvature="0" /></clipPath><clipPath
       clipPathUnits="userSpaceOnUse"
       id="clipPath214"><path
         d="M 57.6,38.016 H 414.72 V 304.128 H 57.6 Z"
         id="path212"
         inkscape:connector-curvature="0" /></clipPath></defs><sodipodi:namedview
     pagecolor="#ffffff"
     bordercolor="#666666"
     borderopacity="1"
     objecttolerance="10"
     gridtolerance="10"
     guidetolerance="10"
     inkscape:pageopacity="0"
     inkscape:pageshadow="2"
     inkscape:window-width="1848"
     inkscape:window-height="1016"
     id="namedview4"
     showgrid="false"
     showguides="false"
     inkscape:zoom="8.1944446"
     inkscape:cx="-16.464456"
     inkscape:cy="214.18807"
     inkscape:window-x="72"
     inkscape:window-y="27"
     inkscape:window-maximized="1"
     inkscape:current-layer="g10" /><g
     id="g10"
     inkscape:groupmode="layer"
     inkscape:label="nyquist"
     transform="matrix(1.3333333,0,0,-1.3333333,0,460.8)"><path
       d="M 0,0 H 460.8 V 345.6 H 0 Z"
       style="fill:#ffffff;fill-opacity:1;fill-rule:nonzero;stroke:none"
       id="path12"
       inkscape:connector-curvature="0" /><path
       d="M 57.6,38.016 H 414.72 V 304.128 H 57.6 Z"
       style="fill:#ffffff;fill-opacity:1;fill-rule:nonzero;stroke:none"
       id="path14"
       inkscape:connector-curvature="0" /><path
       d="m 73.807603,38.016 v -3.5"
       style="fill:#000000;fill-opacity:1;fill-rule:nonzero;stroke:#000000;stroke-width:0.80000001;stroke-linecap:butt;stroke-linejoin:round;stroke-miterlimit:10;stroke-dasharray:none;stroke-opacity:1"
       id="path16"
       inkscape:connector-curvature="0" /><g
       id="g18"
       transform="translate(65.854478,23.42225)"><text
         transform="scale(1,-1)"
         style="font-variant:normal;font-weight:normal;font-size:10px;font-family:'DejaVu Sans';-inkscape-font-specification:DejaVuSans;writing-mode:lr-tb;fill:#000000;fill-opacity:1;fill-rule:nonzero;stroke:none"
         id="text22"><tspan
           x="0 6.3600001 9.54"
           y="0"
           sodipodi:role="line"
           id="tspan20">0.0</tspan></text>
</g><path
       d="m 138.75193,38.016 v -3.5"
       style="fill:#000000;fill-opacity:1;fill-rule:nonzero;stroke:#000000;stroke-width:0.80000001;stroke-linecap:butt;stroke-linejoin:round;stroke-miterlimit:10;stroke-dasharray:none;stroke-opacity:1"
       id="path24"
       inkscape:connector-curvature="0" /><g
       id="g26"
       transform="translate(130.7988,23.42225)"><text
         transform="scale(1,-1)"
         style="font-variant:normal;font-weight:normal;font-size:10px;font-family:'DejaVu Sans';-inkscape-font-specification:DejaVuSans;writing-mode:lr-tb;fill:#000000;fill-opacity:1;fill-rule:nonzero;stroke:none"
         id="text30"><tspan
           x="0 6.3600001 9.54"
           y="0"
           sodipodi:role="line"
           id="tspan28">0.2</tspan></text>
</g><path
       d="m 203.69625,38.016 v -3.5"
       style="fill:#000000;fill-opacity:1;fill-rule:nonzero;stroke:#000000;stroke-width:0.80000001;stroke-linecap:butt;stroke-linejoin:round;stroke-miterlimit:10;stroke-dasharray:none;stroke-opacity:1"
       id="path32"
       inkscape:connector-curvature="0" /><g
       id="g34"
       transform="translate(195.74313,23.42225)"><text
         transform="scale(1,-1)"
         style="font-variant:normal;font-weight:normal;font-size:10px;font-family:'DejaVu Sans';-inkscape-font-specification:DejaVuSans;writing-mode:lr-tb;fill:#000000;fill-opacity:1;fill-rule:nonzero;stroke:none"
         id="text38"><tspan
           x="0 6.3600001 9.54"
           y="0"
           sodipodi:role="line"
           id="tspan36">0.4</tspan></text>
</g><path
       d="m 268.64058,38.016 v -3.5"
       style="fill:#000000;fill-opacity:1;fill-rule:nonzero;stroke:#000000;stroke-width:0.80000001;stroke-linecap:butt;stroke-linejoin:round;stroke-miterlimit:10;stroke-dasharray:none;stroke-opacity:1"
       id="path40"
       inkscape:connector-curvature="0" /><g
       id="g42"
       transform="translate(260.68746,23.42225)"><text
         transform="scale(1,-1)"
         style="font-variant:normal;font-weight:normal;font-size:10px;font-family:'DejaVu Sans';-inkscape-font-specification:DejaVuSans;writing-mode:lr-tb;fill:#000000;fill-opacity:1;fill-rule:nonzero;stroke:none"
         id="text46"><tspan
           x="0 6.3600001 9.54"
           y="0"
           sodipodi:role="line"
           id="tspan44">0.6</tspan></text>
</g><path
       d="m 333.58491,38.016 v -3.5"
       style="fill:#000000;fill-opacity:1;fill-rule:nonzero;stroke:#000000;stroke-width:0.80000001;stroke-linecap:butt;stroke-linejoin:round;stroke-miterlimit:10;stroke-dasharray:none;stroke-opacity:1"
       id="path48"
       inkscape:connector-curvature="0" /><g
       id="g50"
       transform="translate(325.63178,23.42225)"><text
         transform="scale(1,-1)"
         style="font-variant:normal;font-weight:normal;font-size:10px;font-family:'DejaVu Sans';-inkscape-font-specification:DejaVuSans;writing-mode:lr-tb;fill:#000000;fill-opacity:1;fill-rule:nonzero;stroke:none"
         id="text54"><tspan
           x="0 6.3600001 9.54"
           y="0"
           sodipodi:role="line"
           id="tspan52">0.8</tspan></text>
</g><path
       d="m 398.52923,38.016 v -3.5"
       style="fill:#000000;fill-opacity:1;fill-rule:nonzero;stroke:#000000;stroke-width:0.80000001;stroke-linecap:butt;stroke-linejoin:round;stroke-miterlimit:10;stroke-dasharray:none;stroke-opacity:1"
       id="path56"
       inkscape:connector-curvature="0" /><g
       id="g58"
       transform="translate(390.57611,23.42225)"><text
         transform="scale(1,-1)"
         style="font-variant:normal;font-weight:normal;font-size:10px;font-family:'DejaVu Sans';-inkscape-font-specification:DejaVuSans;writing-mode:lr-tb;fill:#000000;fill-opacity:1;fill-rule:nonzero;stroke:none"
         id="text62"><tspan
           x="0 6.3600001 9.54"
           y="0"
           sodipodi:role="line"
           id="tspan60">1.0</tspan></text>
</g><g
       id="g64"
       transform="translate(219.16,9.42225)"><text
         transform="matrix(1,0,0,-1,8.1396484,0.40625)"
         style="font-style:italic;font-variant:normal;font-size:10px;font-family:'DejaVu Sans';-inkscape-font-specification:DejaVuSans-Oblique;writing-mode:lr-tb;fill:#000000;fill-opacity:1;fill-rule:nonzero;stroke:none"
         id="text68"><tspan
           x="0"
           y="0"
           id="tspan66">e</tspan></text>
<text
         transform="matrix(1,0,0,-1,14.291992,0.40625)"
         style="font-variant:normal;font-weight:normal;font-size:10px;font-family:'DejaVu Sans';-inkscape-font-specification:DejaVuSans;writing-mode:lr-tb;fill:#000000;fill-opacity:1;fill-rule:nonzero;stroke:none"
         id="text72"><tspan
           x="0"
           y="0"
           id="tspan70">(</tspan></text>
<text
         transform="matrix(1,0,0,-1,18.193359,0.40625)"
         style="font-style:italic;font-variant:normal;font-size:10px;font-family:'DejaVu Sans';-inkscape-font-specification:DejaVuSans-Oblique;writing-mode:lr-tb;fill:#000000;fill-opacity:1;fill-rule:nonzero;stroke:none"
         id="text76"><tspan
           x="0"
           y="0"
           id="tspan74">T</tspan></text>
<text
         transform="matrix(1,0,0,-1,24.301758,-1.234375)"
         style="font-style:italic;font-variant:normal;font-size:7px;font-family:'DejaVu Sans';-inkscape-font-specification:DejaVuSans-Oblique;writing-mode:lr-tb;fill:#000000;fill-opacity:1;fill-rule:nonzero;stroke:none"
         id="text80"><tspan
           x="0"
           y="0"
           id="tspan78" /></text>
<text
         transform="matrix(1,0,0,-1,29.36377,0.40625)"
         style="font-variant:normal;font-weight:normal;font-size:10px;font-family:'DejaVu Sans';-inkscape-font-specification:DejaVuSans;writing-mode:lr-tb;fill:#000000;fill-opacity:1;fill-rule:nonzero;stroke:none"
         id="text84"><tspan
           x="0"
           y="0"
           id="tspan82" /></text>
<g
         id="g86"
         transform="matrix(0.01,0,0,0.01,0,0.40625)"><g
           id="g88"><g
             id="g90"
             clip-path="url(#clipPath94)"><path
               d="m 626,-13 c -27,58 -40,114 -40,166 0,45 -4,83 -11,113 -13,54 -32,81 -58,81 -14,0 -35,-7 -65,-21 L 393,298 V 201 C 393,134 376,82 342,44 308,6 269,-13 224,-13 178,-13 138,5 105,43 71,81 55,129 55,187 c 14,-4 29,-8 45,-12 0,-40 10,-74 31,-102 20,-28 42,-42 66,-42 23,0 45,14 66,42 20,28 31,67 31,116 v 326 c 0,48 -11,86 -31,115 -21,28 -46,43 -75,43 -27,0 -51,-15 -72,-43 -21,-28 -31,-59 -31,-91 0,-33 10,-63 31,-91 20,-29 44,-43 72,-43 l 26,-45 c -49,0 -90,19 -123,57 -34,38 -50,83 -50,134 0,51 16,96 50,134 33,38 74,57 123,57 52,0 95,-19 129,-57 9,-12 16,-23 22,-33 l 103,48 c 61,28 110,43 146,43 15,0 29,-3 41,-7 40,-16 61,-53 61,-111 0,-28 -11,-62 -31,-102 -22,-41 -54,-76 -94,-106 19,0 37,-8 53,-24 11,-12 21,-35 30,-69 10,-40 16,-82 16,-124 0,-42 7,-82 22,-120 l 70,33 21,-45 z M 383,609 c 6,-25 10,-52 10,-82 V 350 l 75,35 c 47,21 83,49 108,83 24,33 36,69 36,109 0,49 -12,79 -36,90 -8,2 -17,4 -27,4 -21,0 -48,-8 -81,-23 z"
               style="fill:#000000;fill-opacity:1;fill-rule:nonzero;stroke:none"
               id="path96"
               inkscape:connector-curvature="0" /></g></g></g><text
         xml:space="preserve"
         style="font-style:normal;font-weight:normal;font-size:10px;line-height:1.25;font-family:sans-serif;letter-spacing:0px;word-spacing:0px;fill:#000000;fill-opacity:1;stroke:none;stroke-width:0.75"
         x="24.572205"
         y="-0.46250266"
         id="text3071"
         transform="scale(1,-1)"><tspan
           sodipodi:role="line"
           id="tspan3069"
           x="24.572205"
           y="-0.46250266"
           style="font-size:10px;stroke-width:0.75">)</tspan></text>
</g><path
       d="M 57.6,55.991341 H 54.1"
       style="fill:#000000;fill-opacity:1;fill-rule:nonzero;stroke:#000000;stroke-width:0.80000001;stroke-linecap:butt;stroke-linejoin:round;stroke-miterlimit:10;stroke-dasharray:none;stroke-opacity:1"
       id="path98"
       inkscape:connector-curvature="0" /><g
       id="g100"
       transform="translate(26.31875,52.194466)"><text
         transform="matrix(1,0,0,-1,8.3789063,0)"
         style="font-variant:normal;font-weight:normal;font-size:10px;font-family:'DejaVu Sans';-inkscape-font-specification:DejaVuSans;writing-mode:lr-tb;fill:#000000;fill-opacity:1;fill-rule:nonzero;stroke:none"
         id="text104"><tspan
           x="0 6.3600001 9.54"
           y="0"
           sodipodi:role="line"
           id="tspan102">0.1</tspan></text>
<g
         id="g106"
         transform="scale(0.01)"><g
           id="g108"><g
             id="g110"
             clip-path="url(#clipPath114)"><path
               d="M 106,355 H 732 V 272 H 106 Z"
               style="fill:#000000;fill-opacity:1;fill-rule:nonzero;stroke:none"
               id="path116"
               inkscape:connector-curvature="0" /></g></g></g></g><path
       d="M 57.6,88.463504 H 54.1"
       style="fill:#000000;fill-opacity:1;fill-rule:nonzero;stroke:#000000;stroke-width:0.80000001;stroke-linecap:butt;stroke-linejoin:round;stroke-miterlimit:10;stroke-dasharray:none;stroke-opacity:1"
       id="path118"
       inkscape:connector-curvature="0" /><g
       id="g120"
       transform="translate(34.69375,84.666629)"><text
         transform="scale(1,-1)"
         style="font-variant:normal;font-weight:normal;font-size:10px;font-family:'DejaVu Sans';-inkscape-font-specification:DejaVuSans;writing-mode:lr-tb;fill:#000000;fill-opacity:1;fill-rule:nonzero;stroke:none"
         id="text124"><tspan
           x="0 6.3600001 9.54"
           y="0"
           sodipodi:role="line"
           id="tspan122">0.0</tspan></text>
</g><path
       d="M 57.6,120.93567 H 54.1"
       style="fill:#000000;fill-opacity:1;fill-rule:nonzero;stroke:#000000;stroke-width:0.80000001;stroke-linecap:butt;stroke-linejoin:round;stroke-miterlimit:10;stroke-dasharray:none;stroke-opacity:1"
       id="path126"
       inkscape:connector-curvature="0" /><g
       id="g128"
       transform="translate(34.69375,117.13879)"><text
         transform="scale(1,-1)"
         style="font-variant:normal;font-weight:normal;font-size:10px;font-family:'DejaVu Sans';-inkscape-font-specification:DejaVuSans;writing-mode:lr-tb;fill:#000000;fill-opacity:1;fill-rule:nonzero;stroke:none"
         id="text132"><tspan
           x="0 6.3600001 9.54"
           y="0"
           sodipodi:role="line"
           id="tspan130">0.1</tspan></text>
</g><path
       d="M 57.6,153.40783 H 54.1"
       style="fill:#000000;fill-opacity:1;fill-rule:nonzero;stroke:#000000;stroke-width:0.80000001;stroke-linecap:butt;stroke-linejoin:round;stroke-miterlimit:10;stroke-dasharray:none;stroke-opacity:1"
       id="path134"
       inkscape:connector-curvature="0" /><g
       id="g136"
       transform="translate(34.69375,149.61096)"><text
         transform="scale(1,-1)"
         style="font-variant:normal;font-weight:normal;font-size:10px;font-family:'DejaVu Sans';-inkscape-font-specification:DejaVuSans;writing-mode:lr-tb;fill:#000000;fill-opacity:1;fill-rule:nonzero;stroke:none"
         id="text140"><tspan
           x="0 6.3600001 9.54"
           y="0"
           sodipodi:role="line"
           id="tspan138">0.2</tspan></text>
</g><path
       d="M 57.6,185.87999 H 54.1"
       style="fill:#000000;fill-opacity:1;fill-rule:nonzero;stroke:#000000;stroke-width:0.80000001;stroke-linecap:butt;stroke-linejoin:round;stroke-miterlimit:10;stroke-dasharray:none;stroke-opacity:1"
       id="path142"
       inkscape:connector-curvature="0" /><g
       id="g144"
       transform="translate(34.69375,182.08312)"><text
         transform="scale(1,-1)"
         style="font-variant:normal;font-weight:normal;font-size:10px;font-family:'DejaVu Sans';-inkscape-font-specification:DejaVuSans;writing-mode:lr-tb;fill:#000000;fill-opacity:1;fill-rule:nonzero;stroke:none"
         id="text148"><tspan
           x="0 6.3600001 9.54"
           y="0"
           sodipodi:role="line"
           id="tspan146">0.3</tspan></text>
</g><path
       d="M 57.6,218.35216 H 54.1"
       style="fill:#000000;fill-opacity:1;fill-rule:nonzero;stroke:#000000;stroke-width:0.80000001;stroke-linecap:butt;stroke-linejoin:round;stroke-miterlimit:10;stroke-dasharray:none;stroke-opacity:1"
       id="path150"
       inkscape:connector-curvature="0" /><g
       id="g152"
       transform="translate(34.69375,214.55528)"><text
         transform="scale(1,-1)"
         style="font-variant:normal;font-weight:normal;font-size:10px;font-family:'DejaVu Sans';-inkscape-font-specification:DejaVuSans;writing-mode:lr-tb;fill:#000000;fill-opacity:1;fill-rule:nonzero;stroke:none"
         id="text156"><tspan
           x="0 6.3600001 9.54"
           y="0"
           sodipodi:role="line"
           id="tspan154">0.4</tspan></text>
</g><path
       d="M 57.6,250.82432 H 54.1"
       style="fill:#000000;fill-opacity:1;fill-rule:nonzero;stroke:#000000;stroke-width:0.80000001;stroke-linecap:butt;stroke-linejoin:round;stroke-miterlimit:10;stroke-dasharray:none;stroke-opacity:1"
       id="path158"
       inkscape:connector-curvature="0" /><g
       id="g160"
       transform="translate(34.69375,247.02744)"><text
         transform="scale(1,-1)"
         style="font-variant:normal;font-weight:normal;font-size:10px;font-family:'DejaVu Sans';-inkscape-font-specification:DejaVuSans;writing-mode:lr-tb;fill:#000000;fill-opacity:1;fill-rule:nonzero;stroke:none"
         id="text164"><tspan
           x="0 6.3600001 9.54"
           y="0"
           sodipodi:role="line"
           id="tspan162">0.5</tspan></text>
</g><path
       d="M 57.6,283.29648 H 54.1"
       style="fill:#000000;fill-opacity:1;fill-rule:nonzero;stroke:#000000;stroke-width:0.80000001;stroke-linecap:butt;stroke-linejoin:round;stroke-miterlimit:10;stroke-dasharray:none;stroke-opacity:1"
       id="path166"
       inkscape:connector-curvature="0" /><g
       id="g168"
       transform="translate(34.69375,279.49961)"><text
         transform="scale(1,-1)"
         style="font-variant:normal;font-weight:normal;font-size:10px;font-family:'DejaVu Sans';-inkscape-font-specification:DejaVuSans;writing-mode:lr-tb;fill:#000000;fill-opacity:1;fill-rule:nonzero;stroke:none"
         id="text172"><tspan
           x="0 6.3600001 9.54"
           y="0"
           sodipodi:role="line"
           id="tspan170">0.6</tspan></text>
</g><g
       id="g174"
       transform="rotate(90,-66.415688,86.656312)"><text
         transform="matrix(1,0,0,-1,6.9726562,0.40625)"
         style="font-style:italic;font-variant:normal;font-size:10px;font-family:'DejaVu Sans';-inkscape-font-specification:DejaVuSans-Oblique;writing-mode:lr-tb;fill:#000000;fill-opacity:1;fill-rule:nonzero;stroke:none"
         id="text178"><tspan
           x="0"
           y="0"
           id="tspan176">m</tspan></text>
<text
         transform="matrix(1,0,0,-1,16.713867,0.40625)"
         style="font-variant:normal;font-weight:normal;font-size:10px;font-family:'DejaVu Sans';-inkscape-font-specification:DejaVuSans;writing-mode:lr-tb;fill:#000000;fill-opacity:1;fill-rule:nonzero;stroke:none"
         id="text182"><tspan
           x="0"
           y="0"
           id="tspan180">(</tspan></text>
<text
         transform="matrix(1,0,0,-1,20.615234,0.40625)"
         style="font-style:italic;font-variant:normal;font-size:10px;font-family:'DejaVu Sans';-inkscape-font-specification:DejaVuSans-Oblique;writing-mode:lr-tb;fill:#000000;fill-opacity:1;fill-rule:nonzero;stroke:none"
         id="text186"><tspan
           x="0"
           y="0"
           id="tspan184">T</tspan></text>
<text
         transform="scale(1,-1)"
         style="font-variant:normal;font-weight:normal;font-size:10px;font-family:'DejaVu Sans';-inkscape-font-specification:DejaVuSans;writing-mode:lr-tb;fill:#000000;fill-opacity:1;fill-rule:nonzero;stroke:none"
         id="text194"
         x="27.667"
         y="-0.49777624"><tspan
           x="27.667"
           y="-0.49777624"
           id="tspan192">)</tspan></text>
<g
         id="g196"
         transform="matrix(0.01,0,0,0.01,0,0.40625)"><g
           id="g198"><g
             id="g200"
             clip-path="url(#clipPath204)"><path
               d="m 52,44 68,81 c 36,12 73,19 111,19 18,0 49,-14 93,-40 46,-28 75,-41 86,-41 39,0 75,22 108,66 23,32 35,60 35,84 0,41 -11,80 -31,117 -26,47 -39,88 -39,124 0,32 13,75 39,127 l 104,68 c -26,-45 -39,-87 -39,-127 0,-35 13,-76 39,-124 17,-32 26,-79 26,-140 C 652,227 619,172 554,94 493,22 423,-13 345,-13 327,-13 297,0 255,24 211,50 181,63 163,63 132,63 95,56 52,44 Z m 119,671 c 35,18 76,27 122,27 40,0 80,-8 122,-24 40,-16 80,-23 122,-23 40,0 81,9 122,29 l -97,-83 c -46,-20 -87,-29 -123,-29 -46,0 -87,8 -122,24 -35,16 -76,24 -122,24 -40,0 -80,-10 -122,-28 z"
               style="fill:#000000;fill-opacity:1;fill-rule:nonzero;stroke:none"
               id="path206"
               inkscape:connector-curvature="0" /></g></g></g></g><g
       id="g208"><g
         id="g210"
         clip-path="url(#clipPath214)"><path
           d="m 73.832727,91.319684 0.216424,5.996932 0.437683,5.982644 0.658394,5.96248 0.880319,5.94676 1.096959,5.89596 1.318347,5.86942 1.535502,5.81878 1.741967,5.73283 1.950572,5.65991 2.154485,5.57577 2.373624,5.52669 2.578168,5.43793 2.769971,5.32402 2.954101,5.1999 3.138642,5.07987 3.334385,4.97691 3.50035,4.83011 3.68973,4.7159 3.85377,4.56824 4.05834,4.46471 4.1697,4.25993 4.32534,4.1059 4.54437,4.0047 4.66139,3.80944 4.75017,3.59814 4.912,3.44363 5.05803,3.2736 5.18666,3.08977 5.29648,2.89404 5.3864,2.68852 5.45563,2.47546 5.5037,2.25712 5.66392,2.08218 5.67594,1.85149 5.80583,1.65901 5.78004,1.42307 5.87737,1.21948 5.96005,1.00765 6.02715,0.78887 5.92924,0.55353 5.96195,0.33634 5.97863,0.11689 5.97913,-0.10335 5.96343,-0.32289 5.93171,-0.54027 6.03067,-0.77555 5.96452,-0.99469 5.88276,-1.20699 5.78628,-1.41112 5.81303,-1.64737 5.6839,-1.84054 5.67275,-2.07174 5.51315,-2.2475 5.46583,-2.46649 5.39729,-2.6803 5.30798,-2.88663 5.19868,-3.08322 5.07049,-3.26799 4.92477,-3.43897 4.76317,-3.59446 4.67476,-3.80669 4.4763,-3.9285 4.34434,-4.10487 4.18871,-4.26029 4.0775,-4.4665 3.87257,-4.57142 3.7083,-4.72046 3.51844,-4.836 3.35208,-4.98415 3.1557,-5.08837 2.9705,-5.20964 2.78567,-5.33499 2.59306,-5.45007 2.38756,-5.53989 2.16733,-5.58987 1.96236,-5.67495 1.75262,-5.74871 1.53652,-5.8009 1.32285,-5.86222 1.10376,-5.89973 0.88577,-5.94284 0.66485,-5.96706 0.44426,-5.996098 0.20747,-5.305391 v 0"
           style="fill:none;stroke:#1f77b4;stroke-width:1.5;stroke-linecap:square;stroke-linejoin:round;stroke-miterlimit:10;stroke-dasharray:none;stroke-opacity:1"
           id="path216"
           inkscape:connector-curvature="0" /></g></g><g
       id="g218"><path
         d="M 57.6,38.016 V 304.128"
         style="fill:none;stroke:#000000;stroke-width:0.80000001;stroke-linecap:square;stroke-linejoin:miter;stroke-miterlimit:10;stroke-dasharray:none;stroke-opacity:1"
         id="path220"
         inkscape:connector-curvature="0" /><path
         d="M 414.72,38.016 V 304.128"
         style="fill:none;stroke:#000000;stroke-width:0.80000001;stroke-linecap:square;stroke-linejoin:miter;stroke-miterlimit:10;stroke-dasharray:none;stroke-opacity:1"
         id="path222"
         inkscape:connector-curvature="0" /><path
         d="M 57.6,38.016 H 414.72"
         style="fill:none;stroke:#000000;stroke-width:0.80000001;stroke-linecap:square;stroke-linejoin:miter;stroke-miterlimit:10;stroke-dasharray:none;stroke-opacity:1"
         id="path224"
         inkscape:connector-curvature="0" /><path
         d="M 57.6,304.128 H 414.72"
         style="fill:none;stroke:#000000;stroke-width:0.80000001;stroke-linecap:square;stroke-linejoin:miter;stroke-miterlimit:10;stroke-dasharray:none;stroke-opacity:1"
         id="path226"
         inkscape:connector-curvature="0" /></g><path
       style="opacity:0.37900002;fill:none;fill-opacity:1;stroke:#fb0000;stroke-width:5.69817543;stroke-miterlimit:4;stroke-dasharray:none;stroke-dashoffset:0;stroke-opacity:1"
       id="path1033"
       sodipodi:type="arc"
       sodipodi:cx="-74.577347"
       sodipodi:cy="60.578209"
       sodipodi:rx="276.50226"
       sodipodi:ry="286.03558"
       sodipodi:start="2.2675733"
       sodipodi:end="3.151163"
       d="M -252.02246,279.94306 A 276.50226,286.03558 0 0 1 -351.06694,57.840791"
       sodipodi:open="true"
       transform="matrix(-0.9950846,-0.09902845,-0.09902845,0.9950846,0,0)" /><path
       style="fill:none;stroke:#000000;stroke-width:0.75000002;stroke-linecap:butt;stroke-linejoin:miter;stroke-opacity:1;stroke-miterlimit:4;stroke-dasharray:4.50000011,4.50000011;stroke-dashoffset:0"
       d="M 288.90226,240.23414 73.832727,91.319688 418.33875,91.123302"
       id="path1039"
       inkscape:connector-curvature="0" /><text
       xml:space="preserve"
       style="font-style:normal;font-weight:normal;font-size:20px;line-height:1.25;font-family:sans-serif;letter-spacing:0px;word-spacing:0px;fill:#000000;fill-opacity:1;stroke:none;stroke-width:0.75"
       x="203.78021"
       y="-58.202297"
       id="text1043"
       transform="matrix(0.70261788,0.71156737,0.71156737,-0.70261788,0,0)"><tspan
         sodipodi:role="line"
         id="tspan1041"
         x="203.78021"
         y="-58.202297"
         style="stroke-width:0.75"><tspan
           style="font-size:12px"
           id="tspan3013">low f</tspan></tspan></text>
<text
       xml:space="preserve"
       style="font-style:normal;font-weight:normal;font-size:12.0000003px;line-height:1.25;font-family:sans-serif;letter-spacing:0px;word-spacing:0px;fill:#000000;fill-opacity:1;stroke:none;stroke-width:0.75;"
       x="95.454781"
       y="-390.01334"
       id="text1047"
       transform="matrix(0.74561514,-0.66637682,-0.66637682,-0.74561514,0,0)"><tspan
         sodipodi:role="line"
         id="tspan1045"
         x="95.454781"
         y="-390.01334"
         style="stroke-width:0.75;font-size:12.0000003px;">high f</tspan></text>
<text
       xml:space="preserve"
       style="font-style:normal;font-weight:normal;font-size:12.0000003px;line-height:1.25;font-family:sans-serif;letter-spacing:0px;word-spacing:0px;fill:#000000;fill-opacity:1;stroke:none;stroke-width:0.75;"
       id="text1051"
       y="-276.99411"
       x="282.17157"
       transform="scale(1,-1)"><tspan
         sodipodi:role="line"
         id="tspan1049"
         x="282.17157"
         y="-276.99411"
         style="stroke-width:0.75;font-size:12.0000003px;">corner f</tspan></text>
<path
       style="fill:none;stroke:#000000;stroke-width:0.75px;stroke-linecap:butt;stroke-linejoin:miter;stroke-opacity:1"
       d="m 123.22354,92.158796 c 0.37018,12.623504 -3.47671,21.029924 -11.39041,25.369554"
       id="path1442"
       inkscape:connector-curvature="0"
       sodipodi:nodetypes="cc" /><text
       xml:space="preserve"
       style="font-style:normal;font-weight:normal;font-size:12.0000003px;line-height:1.25;font-family:sans-serif;letter-spacing:0px;word-spacing:0px;fill:#000000;fill-opacity:1;stroke:none;stroke-width:0.75;"
       x="128.61395"
       y="-104.17343"
       id="text1446"
       transform="scale(1,-1)"><tspan
         sodipodi:role="line"
         id="tspan1444"
         x="128.61395"
         y="-104.17343"
         style="stroke-width:0.75;font-size:12.0000003px;">phase angle</tspan></text>
<path
       style="fill:none;stroke:#000000;stroke-width:0.75px;stroke-linecap:butt;stroke-linejoin:miter;stroke-opacity:1;marker-end:url(#marker2952)"
       d="m 298.73943,271.2989 -9.83717,-31.06476"
       id="path2942"
       inkscape:connector-curvature="0" /></g></svg>