<?xml version="1.0" encoding="UTF-8" standalone="no"?>
<!-- Created with Inkscape (http://www.inkscape.org/) -->

<svg
   xmlns:dc="http://purl.org/dc/elements/1.1/"
   xmlns:cc="http://creativecommons.org/ns#"
   xmlns:rdf="http://www.w3.org/1999/02/22-rdf-syntax-ns#"
   xmlns:svg="http://www.w3.org/2000/svg"
   xmlns="http://www.w3.org/2000/svg"
   xmlns:sodipodi="http://sodipodi.sourceforge.net/DTD/sodipodi-0.dtd"
   xmlns:inkscape="http://www.inkscape.org/namespaces/inkscape"
   width="169.05589mm"
   height="101.6889mm"
   viewBox="0 0 169.05589 101.6889"
   version="1.1"
   id="svg8"
   inkscape:version="0.92.5 (2060ec1f9f, 2020-04-08)"
   sodipodi:docname="crater1.svg">
  <defs
     id="defs2">
    <marker
       inkscape:isstock="true"
       style="overflow:visible"
       id="marker6596"
       refX="0"
       refY="0"
       orient="auto"
       inkscape:stockid="Arrow1Lend">
      <path
         transform="matrix(-0.8,0,0,-0.8,-10,0)"
         style="fill:#000000;fill-opacity:1;fill-rule:evenodd;stroke:#000000;stroke-width:1.00000003pt;stroke-opacity:1"
         d="M 0,0 5,-5 -12.5,0 5,5 Z"
         id="path6594"
         inkscape:connector-curvature="0" />
    </marker>
    <marker
       inkscape:stockid="Arrow1Mend"
       orient="auto"
       refY="0"
       refX="0"
       id="Arrow1Mend"
       style="overflow:visible"
       inkscape:isstock="true">
      <path
         id="path4617"
         d="M 0,0 5,-5 -12.5,0 5,5 Z"
         style="fill:#000000;fill-opacity:1;fill-rule:evenodd;stroke:#000000;stroke-width:1.00000003pt;stroke-opacity:1"
         transform="matrix(-0.4,0,0,-0.4,-4,0)"
         inkscape:connector-curvature="0" />
    </marker>
    <marker
       inkscape:stockid="Arrow1Mstart"
       orient="auto"
       refY="0"
       refX="0"
       id="Arrow1Mstart"
       style="overflow:visible"
       inkscape:isstock="true">
      <path
         id="path4614"
         d="M 0,0 5,-5 -12.5,0 5,5 Z"
         style="fill:#000000;fill-opacity:1;fill-rule:evenodd;stroke:#000000;stroke-width:1.00000003pt;stroke-opacity:1"
         transform="matrix(0.4,0,0,0.4,4,0)"
         inkscape:connector-curvature="0" />
    </marker>
    <marker
       inkscape:stockid="Arrow2Lstart"
       orient="auto"
       refY="0"
       refX="0"
       id="Arrow2Lstart"
       style="overflow:visible"
       inkscape:isstock="true">
      <path
         id="path4626"
         style="fill:#000000;fill-opacity:1;fill-rule:evenodd;stroke:#000000;stroke-width:0.625;stroke-linejoin:round;stroke-opacity:1"
         d="M 8.7185878,4.0337352 -2.2072895,0.01601326 8.7185884,-4.0017078 c -1.7454984,2.3720609 -1.7354408,5.6174519 -6e-7,8.035443 z"
         transform="matrix(1.1,0,0,1.1,1.1,0)"
         inkscape:connector-curvature="0" />
    </marker>
    <marker
       inkscape:isstock="true"
       style="overflow:visible"
       id="marker5665"
       refX="0"
       refY="0"
       orient="auto"
       inkscape:stockid="Arrow1Lend">
      <path
         transform="matrix(-0.8,0,0,-0.8,-10,0)"
         style="fill:#f5f5ff;fill-opacity:1;fill-rule:evenodd;stroke:#000000;stroke-width:1.00000003pt;stroke-opacity:1"
         d="M 0,0 5,-5 -12.5,0 5,5 Z"
         id="path5663"
         inkscape:connector-curvature="0" />
    </marker>
    <marker
       inkscape:stockid="Arrow1Lend"
       orient="auto"
       refY="0"
       refX="0"
       id="marker5590"
       style="overflow:visible"
       inkscape:isstock="true"
       inkscape:collect="always">
      <path
         id="path5588"
         d="M 0,0 5,-5 -12.5,0 5,5 Z"
         style="fill:#000000;fill-opacity:1;fill-rule:evenodd;stroke:#000000;stroke-width:1.00000003pt;stroke-opacity:1"
         transform="matrix(-0.8,0,0,-0.8,-10,0)"
         inkscape:connector-curvature="0" />
    </marker>
    <marker
       inkscape:isstock="true"
       style="overflow:visible"
       id="marker5550"
       refX="0"
       refY="0"
       orient="auto"
       inkscape:stockid="Arrow1Lend">
      <path
         transform="matrix(-0.8,0,0,-0.8,-10,0)"
         style="fill:#f5f5ff;fill-opacity:1;fill-rule:evenodd;stroke:#000000;stroke-width:1.00000003pt;stroke-opacity:1"
         d="M 0,0 5,-5 -12.5,0 5,5 Z"
         id="path5548"
         inkscape:connector-curvature="0" />
    </marker>
    <marker
       inkscape:stockid="Arrow1Lend"
       orient="auto"
       refY="0"
       refX="0"
       id="Arrow1Lend"
       style="overflow:visible"
       inkscape:isstock="true"
       inkscape:collect="always">
      <path
         id="path4611"
         d="M 0,0 5,-5 -12.5,0 5,5 Z"
         style="fill:#000000;fill-opacity:1;fill-rule:evenodd;stroke:#000000;stroke-width:1.00000003pt;stroke-opacity:1"
         transform="matrix(-0.8,0,0,-0.8,-10,0)"
         inkscape:connector-curvature="0" />
    </marker>
    <marker
       inkscape:stockid="Arrow1Lstart"
       orient="auto"
       refY="0"
       refX="0"
       id="Arrow1Lstart"
       style="overflow:visible"
       inkscape:isstock="true">
      <path
         id="path4608"
         d="M 0,0 5,-5 -12.5,0 5,5 Z"
         style="fill:#000000;fill-opacity:1;fill-rule:evenodd;stroke:#000000;stroke-width:1.00000003pt;stroke-opacity:1"
         transform="matrix(0.8,0,0,0.8,10,0)"
         inkscape:connector-curvature="0" />
    </marker>
  </defs>
  <sodipodi:namedview
     id="base"
     pagecolor="#ffffff"
     bordercolor="#666666"
     borderopacity="1.0"
     inkscape:pageopacity="0.0"
     inkscape:pageshadow="2"
     inkscape:zoom="1"
     inkscape:cx="388.96196"
     inkscape:cy="170.7714"
     inkscape:document-units="mm"
     inkscape:current-layer="layer1"
     showgrid="false"
     inkscape:window-width="1848"
     inkscape:window-height="1016"
     inkscape:window-x="72"
     inkscape:window-y="27"
     inkscape:window-maximized="1"
     fit-margin-top="4"
     fit-margin-right="4"
     fit-margin-bottom="4"
     fit-margin-left="4" />
  <metadata
     id="metadata5">
    <rdf:RDF>
      <cc:Work
         rdf:about="">
        <dc:format>image/svg+xml</dc:format>
        <dc:type
           rdf:resource="http://purl.org/dc/dcmitype/StillImage" />
        <dc:title></dc:title>
      </cc:Work>
    </rdf:RDF>
  </metadata>
  <g
     inkscape:label="Layer 1"
     inkscape:groupmode="layer"
     id="layer1"
     transform="translate(-22.817286,-23.306604)">
    <rect
       style="opacity:0.35800003;fill:#0000ff;fill-opacity:1;fill-rule:evenodd;stroke:#000000;stroke-width:0.63690561;stroke-miterlimit:4;stroke-dasharray:none;stroke-dashoffset:7.94000006;stroke-opacity:1"
       id="rect4485"
       width="160.41899"
       height="68.759758"
       x="27.135738"
       y="51.917286" />
    <path
       style="opacity:1;fill:#ffffff;fill-opacity:1;fill-rule:evenodd;stroke:#000000;stroke-width:0;stroke-miterlimit:4;stroke-dasharray:none;stroke-dashoffset:13.02234459;stroke-opacity:1"
       id="path4487"
       sodipodi:type="arc"
       sodipodi:cx="3.4789548"
       sodipodi:cy="-115.10899"
       sodipodi:rx="51.847496"
       sodipodi:ry="45.803711"
       sodipodi:start="4.3483499"
       sodipodi:end="1.2066414"
       d="m -14.981425,-157.91102 a 51.847496,45.803711 0 0 1 66.90905,26.49107 51.847496,45.803711 0 0 1 -29.982678,59.111093 L 3.4789548,-115.10899 Z"
       transform="matrix(-0.27671141,0.96095307,-0.90922794,-0.41629863,0,0)" />
    <path
       style="fill:none;fill-rule:evenodd;stroke:#000000;stroke-width:0.26458332px;stroke-linecap:butt;stroke-linejoin:miter;stroke-opacity:1;marker-end:url(#marker6596)"
       d="m 105.22487,51.24351 0.11709,66.67137"
       id="path4491"
       inkscape:connector-curvature="0"
       sodipodi:nodetypes="cc" />
    <text
       xml:space="preserve"
       style="font-style:normal;font-weight:normal;font-size:6.3499999px;line-height:6.61458302px;font-family:Sans;letter-spacing:0px;word-spacing:0px;fill:#000000;fill-opacity:1;stroke:none;stroke-width:0.26458332px;stroke-linecap:butt;stroke-linejoin:miter;stroke-opacity:1"
       x="88.276344"
       y="48.480656"
       id="text4495"><tspan
         sodipodi:role="line"
         id="tspan4493"
         x="88.276344"
         y="48.480656"
         style="stroke-width:0.26458332px"><tspan
   style="font-style:normal;font-variant:normal;font-weight:bold;font-stretch:normal;font-family:Sans;-inkscape-font-specification:'Sans Bold'"
   id="tspan4600">r</tspan>=(0,0,0)</tspan></text>
    <text
       xml:space="preserve"
       style="font-style:normal;font-weight:normal;font-size:6.3499999px;line-height:6.61458302px;font-family:Sans;letter-spacing:0px;word-spacing:0px;fill:#000000;fill-opacity:1;stroke:none;stroke-width:0.26458332px;stroke-linecap:butt;stroke-linejoin:miter;stroke-opacity:1"
       x="107.94054"
       y="119.60632"
       id="text4499"><tspan
         sodipodi:role="line"
         id="tspan4497"
         x="107.94054"
         y="119.60632"
         style="stroke-width:0.26458332px">z</tspan></text>
    <text
       xml:space="preserve"
       style="font-style:normal;font-weight:normal;font-size:6.3499999px;line-height:6.61458302px;font-family:Sans;letter-spacing:0px;word-spacing:0px;fill:#000000;fill-opacity:1;stroke:none;stroke-width:0.26458332px;stroke-linecap:butt;stroke-linejoin:miter;stroke-opacity:1"
       x="122.40757"
       y="111.6027"
       id="text4503"><tspan
         sodipodi:role="line"
         id="tspan4501"
         x="122.40757"
         y="111.6027"
         style="stroke-width:0.26458332px">z=1</tspan></text>
    <g
       id="layer1-3"
       transform="matrix(0.02663958,3.8024273e-4,-3.5455788e-4,0.01668067,148.07476,32.252384)">
      <g
         id="g42297"
         transform="matrix(8.1858232,0,0,7.1472691,1065.6299,-3373.0074)">
        <g
           id="g42359">
          <path
             id="path42309"
             d="m -94.551772,638.66039 c 0.446895,-1.34068 8.754524,-3.74907 13.035114,-3.77889 2.493672,-0.0174 2.702877,-0.28295 2.10364,-2.6705 -0.655488,-2.61167 -0.604876,-2.64153 3.393528,-2.00216 2.232417,0.35697 4.885779,0.96467 5.89636,1.35044 1.405623,0.53656 1.191166,-0.0685 -0.91258,-2.57457 -1.5125,-1.80177 -2.75,-3.69142 -2.75,-4.19923 0,-1.55368 3.32309,-1.02366 6.77417,1.08047 1.800793,1.09794 3.453985,1.99626 3.673761,1.99626 0.219775,0 0.321399,-2.76558 0.22583,-6.14574 -0.247042,-8.73759 1.464592,-8.51863 6.146423,0.78627 3.315375,6.58915 4.018908,7.44181 4.608224,5.58504 0.81409,-2.56497 1.879335,-13.27721 4.000105,-40.22557 0.844031,-10.725 1.753114,-20.41942 2.020185,-21.54317 0.370837,-1.56036 -0.215562,-2.30781 -2.481558,-3.16313 -2.098046,-0.79193 -2.96714,-1.78981 -2.96714,-3.40684 0,-1.69017 -0.292715,-1.99415 -1.121855,-1.165 -0.61702,0.61702 -1.696503,0.90134 -2.398849,0.63182 -0.702347,-0.26951 -1.57407,-0.009 -1.937162,0.57815 -0.969407,1.56853 -4.542134,1.3025 -4.542134,-0.33821 0,-1.49985 -3.989258,-1.03583 -5.072191,0.58998 -0.314705,0.47247 -2.339705,0.48404 -4.5,0.0257 -3.312651,-0.70282 -3.911247,-1.21441 -3.82206,-3.26656 0.05816,-1.33827 -0.574419,-2.93057 -1.405736,-3.53845 -0.883413,-0.64597 -1.290038,-1.95204 -0.978561,-3.14313 0.485014,-1.8547 0.179217,-1.99047 -3.401445,-1.5102 -3.407703,0.45707 -4.00926,0.24133 -4.49382,-1.61163 -0.307697,-1.17663 -1.00945,-2.13933 -1.55945,-2.13933 -0.55,0 -0.764644,-0.9 -0.476988,-2 0.31166,-1.19179 0.03068,-2 -0.69531,-2 -1.336963,0 -5.594439,-5.29632 -5.594439,-6.95951 0,-0.57227 -0.9,-1.04049 -2,-1.04049 -1.565086,0 -2,-0.66667 -2,-3.06574 0,-1.68616 0.460286,-3.92579 1.022857,-4.97697 0.729805,-1.36365 0.658179,-2.49957 -0.25,-3.96477 -1.044445,-1.68504 -1.025557,-2.20745 0.105258,-2.91123 0.757964,-0.47173 1.105177,-1.29931 0.771586,-1.83907 -0.333591,-0.53976 0.423605,-2.18023 1.682658,-3.64548 1.7971,-2.09141 3.295697,-2.71059 6.971458,-2.88042 4.460929,-0.20609 5.759237,-0.94128 3.800293,-2.15198 -0.499412,-0.30865 -0.546017,-2.10498 -0.105311,-4.05901 0.434818,-1.92793 0.436114,-3.50533 0.0029,-3.50533 -1.701552,0 -2.069023,-3.47759 -0.489515,-4.63255 0.891559,-0.65193 1.510551,-1.5638 1.375539,-2.02638 -0.135012,-0.46259 0.622523,-1.00373 1.683411,-1.20254 1.060888,-0.19881 2.288748,-0.98631 2.728577,-1.75 0.43983,-0.76369 1.404185,-1.38853 2.143011,-1.38853 1.395501,0 2.557299,-2.10053 2.557299,-4.6236 0,-1.89185 3.011023,-5.06025 5.244394,-5.51849 1.568876,-0.3219 1.60267,-0.62946 0.33586,-3.05672 -1.212261,-2.32275 -1.21148,-2.86236 0.0056,-3.87245 0.777783,-0.64549 1.414146,-2.22117 1.414146,-3.5015 0,-1.28032 0.563234,-2.68772 1.251631,-3.12755 0.688397,-0.43983 1.889438,-2.03719 2.66898,-3.54969 0.779542,-1.5125 2.016308,-2.75 2.748369,-2.75 0.732061,0 1.33102,-0.41968 1.33102,-0.93261 0,-0.51294 0.9,-1.21826 2,-1.56739 1.1,-0.34913 2,-1.06601 2,-1.59307 0,-0.52706 -1.401706,-0.23344 -3.114902,0.65249 -1.890816,0.97778 -3.475608,1.25007 -4.032782,0.6929 -1.093448,-1.09345 -0.07044,-4.25232 1.377118,-4.25232 0.57973,0 0.474601,-0.65169 -0.245001,-1.51876 -1.027575,-1.23815 -0.957818,-1.85317 0.377555,-3.32874 0.900907,-0.99549 1.638012,-2.32268 1.638012,-2.9493 0,-0.62663 1.153677,-1.7438 2.563726,-2.4826 1.41005,-0.7388 3.110719,-2.44067 3.779265,-3.78193 1.567515,-3.14482 6.066997,-5.36824 8.316267,-4.10948 1.241551,0.6948 2.294759,0.3077 4.114861,-1.5124 1.345419,-1.34542 3.03874,-2.21884 3.762936,-1.94094 0.724195,0.2779 1.85472,-0.14298 2.512277,-0.93529 1.995757,-2.40474 5.017743,-1.72312 6.195628,1.39746 1.006031,2.66528 1.356164,2.81063 5.75261,2.38819 4.130259,-0.39686 4.92324,-0.14234 6.735824,2.16198 1.129946,1.4365 2.600326,2.61181 3.267516,2.61181 0.66744,0 0.95417,0.67469 0.63746,1.5 -0.39583,1.03153 0.0621,1.5 1.46634,1.5 1.40914,0 1.93529,0.54233 1.69779,1.75 -0.23725,1.20646 0.59411,2.06611 2.67668,2.76776 2.37435,0.79995 2.97832,1.54897 2.82221,3.5 -0.3718,4.64668 0.65202,6.73225 4.11058,8.37344 2.50225,1.1874 3.6258,2.50428 4.14206,4.8548 0.38963,1.77398 1.39937,3.73066 2.24386,4.34817 1.7029,1.24519 2.19068,10.10857 0.61878,11.24381 -1.42265,1.02744 -1.17774,6.16202 0.29391,6.16202 0.70918,0 1.23613,0.3375 1.171,0.75 -0.31155,1.97316 0.34512,2.9527 3.05106,4.55114 2.27819,1.34575 2.91314,2.41836 2.84524,4.80638 -0.0481,1.69071 -0.71868,3.31627 -1.49024,3.61234 -1.02444,0.39312 -0.57761,1.24527 1.65653,3.15923 1.68265,1.4415 3.18926,3.57124 3.34801,4.73275 0.15875,1.16151 1.05728,2.88048 1.99673,3.81993 3.55479,3.55479 2.98202,9.56823 -0.91135,9.56823 -2.06693,0 -1.65861,3.07194 0.74895,5.63467 1.46238,1.55662 1.88368,2.82601 1.34896,4.06445 -0.42765,0.99048 -0.89992,2.39852 -1.04949,3.12897 -0.6446,3.14812 -1.49028,4.17191 -3.44612,4.17191 -2.0309,0 -2.02419,0.0562 0.26878,2.25 1.29343,1.2375 2.18362,3.0375 1.9782,4 -0.20542,0.9625 0.0792,1.75 0.63245,1.75 2.26717,0 2.32344,4.17659 0.0883,6.55576 -1.84814,1.96725 -2.02044,2.65157 -0.98252,3.90219 1.64459,1.9816 0.61482,4.54205 -1.82673,4.54205 -1.05841,0 -2.19436,0.70352 -2.52432,1.56338 -0.32996,0.85986 -1.07281,1.27112 -1.65079,0.91391 -0.57798,-0.35721 -1.60875,-0.18647 -2.2906,0.37942 -0.74818,0.62093 -1.8079,0.67774 -2.67266,0.14329 -0.86969,-0.5375 -1.93233,-0.47112 -2.70348,0.16887 -0.75725,0.62847 -2.38677,0.74109 -4.03353,0.27876 -1.51965,-0.42664 -3.18398,-0.67406 -3.69852,-0.54982 -2.20255,0.53179 -5.36543,-1.02867 -5.85136,-2.88687 -1.04294,-3.9882 -6.71311,-1.77382 -6.71311,2.62167 0,1.42304 -0.798965,2.4862 -2.20336,2.93193 -1.211848,0.38463 -2.818991,1.31495 -3.571429,2.06739 -0.752407,0.75244 -2.010895,1.36807 -2.79661,1.36807 -3.062846,0 -0.562974,31.74873 3.431524,43.58085 l 1.863182,5.51894 0.548465,-4.08911 c 0.571743,-4.26266 2.368287,-7.35119 3.771578,-6.48391 0.44919,0.27762 1.12505,2.97266 1.50192,5.98899 0.37686,3.01633 1.02082,5.48424 1.43102,5.48424 0.4102,0 1.82008,-2.025 3.13306,-4.5 3.31515,-6.24911 4.8741,-5.85631 4.96097,1.25 0.1204,9.85062 0.71095,10.27314 6.80001,4.86519 7.44103,-6.60868 9.42645,-4.48125 4.63389,4.96533 -1.3727,2.70571 -2.4977,5.02541 -2.5,5.15489 -0.002,0.12947 2.26247,-0.65803 5.03283,-1.75 9.12112,-3.59521 11.54864,-2.26233 5.28416,2.90137 l -3.67882,3.0324 4.20099,0.67176 c 4.73494,0.75715 5.98399,1.83971 3.40091,2.94761 -1.81394,0.77801 -60.721693,2.23693 -96.077593,2.37947 -15.417191,0.0622 -20.236476,-0.20859 -19.932729,-1.11984 z"
             style="fill:#a1a1a1"
             inkscape:connector-curvature="0" />
          <path
             id="path42307"
             d="m -94.252292,638.91628 c -0.694874,-1.12433 4.900356,-2.81514 12.244048,-3.69999 4.873474,-0.58722 5.160538,-0.7651 3.75,-2.32373 -3.040784,-3.36003 -1.754504,-3.63134 6.908217,-1.45714 l 2.66901,0.66988 -2.613474,-3.85117 c -3.093967,-4.55921 -2.119046,-5.26302 3.394242,-2.45035 2.219175,1.13214 4.32964,2.05843 4.689924,2.05843 0.360284,0 0.374602,-2.3625 0.03182,-5.25 -0.342784,-2.8875 -0.218896,-5.87185 0.275306,-6.63189 1.051251,-1.61673 2.177008,-0.0927 6.930329,9.38189 l 3.010136,6 1.088513,-2.8151 c 0.59868,-1.5483 1.088511,-5.68865 1.088511,-9.20078 0,-3.51212 0.438815,-8.54533 0.975144,-11.1849 0.536329,-2.63957 1.438754,-11.77422 2.005389,-20.29922 0.566634,-8.525 1.306145,-17.60246 1.643358,-20.17214 0.597679,-4.55453 0.541897,-4.6804 -2.215842,-5 -1.913661,-0.22178 -3.003524,-1.0285 -3.368503,-2.49336 -0.51679,-2.07416 -0.708253,-2.10643 -4.539546,-0.76505 -5.015069,1.75582 -5.5,1.75795 -5.5,0.0242 0,-1.48903 -3.448082,-1.12395 -5.660972,0.59937 -0.693352,0.53996 -1.38861,0.5358 -1.726133,-0.0103 -0.310838,-0.50295 -1.700901,-0.69734 -3.089028,-0.43198 -2.254739,0.43097 -2.523867,0.15538 -2.523867,-2.58447 0,-1.81006 -0.676057,-3.44523 -1.649704,-3.99011 -1.041871,-0.58306 -1.451736,-1.68025 -1.112403,-2.97786 0.483009,-1.84703 0.119221,-2.03664 -3.600296,-1.87647 -4.094841,0.17633 -4.147332,0.13425 -5.079658,-4.07183 -0.518134,-2.3375 -1.327121,-4.25 -1.797749,-4.25 -1.015174,0 -5.76019,-4.96677 -5.76019,-6.02939 0,-0.40554 -0.9,-0.9727 -2,-1.26036 -2.458112,-0.64281 -2.721912,-5.23456 -0.484267,-8.42925 1.374577,-1.96248 1.351296,-2.25679 -0.25,-3.16023 -1.414303,-0.79794 -1.516948,-1.24744 -0.515733,-2.25849 0.6875,-0.69425 1.25,-1.97227 1.25,-2.84004 0,-2.08717 3.513173,-5.02224 6.011431,-5.02224 1.093713,0 1.988569,-0.49878 1.988569,-1.10841 0,-0.65527 0.934511,-0.87386 2.285903,-0.53468 2.15484,0.54083 2.282091,0.29206 2.219417,-4.33884 -0.03657,-2.70192 -0.390224,-5.23631 -0.785903,-5.63199 -1.778076,-1.77807 1.179902,-7.38608 3.895835,-7.38608 0.643924,0 1.429792,-0.675 1.746374,-1.5 0.316583,-0.825 1.156482,-1.5 1.866442,-1.5 1.627246,0 4.040352,-3.75667 3.242427,-5.04774 -0.328492,-0.53151 0.106263,-1.23635 0.966123,-1.56631 0.85986,-0.32996 1.563382,-1.27927 1.563382,-2.10957 0,-1.01731 0.652246,-1.33908 2,-0.98663 2.300534,0.6016 2.469012,-0.16628 0.827126,-3.76982 -0.897166,-1.96907 -0.897166,-2.84989 0,-3.74706 0.645081,-0.64508 1.172874,-1.98727 1.172874,-2.98266 0,-0.99538 0.9,-2.58039 2,-3.52224 1.1,-0.94185 2,-2.28106 2,-2.97602 0,-0.69497 1.8,-2.45476 4,-3.91065 4.038114,-2.6723 5.646926,-5.33308 2.065741,-3.41648 -2.182549,1.16806 -6.065741,1.39189 -6.065741,0.34963 0,-0.37705 0.978441,-1.72705 2.174314,-3 1.8463,-1.9653 1.921729,-2.31445 0.5,-2.31445 -2.080642,0 -2.20351,-1.8597 -0.174314,-2.63837 0.825,-0.31659 1.5,-1.38975 1.5,-2.3848 0,-1.04845 1.261458,-2.36757 3,-3.13712 1.65,-0.73036 3,-1.89308 3,-2.58382 0,-2.64511 4.052088,-5.40464 7.499978,-5.10759 2.110144,0.1818 4.065011,-0.34963 5.2582,-1.42946 1.044617,-0.94536 2.624812,-1.71884 3.511546,-1.71884 0.886733,0 1.890357,-0.45 2.230276,-1 0.339919,-0.55 1.932903,-1 3.539965,-1 2.264158,0 3.059893,0.54968 3.534778,2.44178 0.572713,2.28187 0.934143,2.40372 5.519052,1.86071 4.115994,-0.48748 4.906205,-0.31704 4.906205,1.05822 0,0.90161 0.675,1.63929 1.5,1.63929 0.825,0 1.5,0.45 1.5,1 0,0.55 0.675,1 1.5,1 1.81631,0 1.99117,1.63514 0.25,2.33772 -0.6875,0.27741 -0.3125,0.53991 0.83333,0.58333 2.79768,0.10602 3.63594,1.10982 2.28555,2.73694 -0.86897,1.04704 -0.67161,1.34201 0.89789,1.34201 1.10641,0 3.02142,0.81765 4.25557,1.817 1.93508,1.56694 2.07841,2.12624 1.04139,4.06393 -0.92671,1.73157 -0.93107,2.57399 -0.019,3.67299 0.95294,1.14822 0.72291,1.62735 -1.18061,2.45908 -2.19118,0.95743 -2.1517,0.99052 0.5396,0.45236 3.69791,-0.73944 8.65502,1.21793 7.92202,3.1281 -0.29684,0.7736 0.00657,1.40654 0.67426,1.40654 0.71436,0 0.95495,0.67502 0.58459,1.64016 -0.3988,1.03924 0.13618,2.17639 1.46018,3.10376 1.14927,0.80497 1.86952,2.03706 1.60055,2.73798 -0.26897,0.70091 0.0383,1.83548 0.68282,2.52125 0.89782,0.95527 0.87808,1.35452 -0.0844,1.70726 -0.69093,0.25323 -1.00187,0.87198 -0.69098,1.375 0.31088,0.50302 0.24138,1.43861 -0.15445,2.07907 -1.08254,1.75164 -1.29233,6.83552 -0.28204,6.83552 0.48605,0 0.8987,0.5625 0.917,1.25 0.0518,1.94554 3.60946,5.75 5.37702,5.75 1.89007,0 2.04885,1.14086 0.38971,2.8 -0.93333,0.93333 -0.93333,1.2 0,1.2 1.9009,0 1.39427,1.99136 -0.70784,2.78222 -1.71018,0.64341 -1.55253,0.9768 1.52163,3.21778 2.57177,1.87476 3.32993,3.08243 3.03145,4.82882 -0.23667,1.38471 0.17496,2.54869 1.01535,2.87118 2.49231,0.95639 4.53952,6.05758 3.33458,8.30903 -0.58605,1.09503 -1.67656,1.99097 -2.42336,1.99097 -2.568,0 -2.53709,2.95125 0.0561,5.35579 2.02308,1.87591 2.35236,2.76732 1.573,4.25838 -0.54213,1.03721 -1.49723,3.17328 -2.12244,4.74684 -0.91328,2.29859 -1.61651,2.76929 -3.57734,2.39445 -1.34233,-0.2566 -2.20266,-0.0815 -1.91184,0.389 0.29081,0.47055 1.06895,0.85554 1.72919,0.85554 1.71753,0 3.75664,3.6407 3.05833,5.46047 -0.32493,0.84674 -0.10847,1.53953 0.48103,1.53953 0.58949,0 1.55508,0.90301 2.14575,2.00669 0.88659,1.65662 0.60429,2.47635 -1.61822,4.69886 -1.5888,1.5888 -2.21946,2.84975 -1.53877,3.07665 0.63438,0.21146 1.15341,1.47197 1.15341,2.80113 0,1.71498 -0.55651,2.41667 -1.91667,2.41667 -1.05416,0 -2.07917,0.48753 -2.2778,1.08341 -0.19862,0.59587 -2.14862,1.20631 -4.33333,1.35654 -2.18471,0.15022 -4.72454,0.59734 -5.64406,0.99359 -0.91952,0.39626 -2.57744,0.23582 -3.68426,-0.35654 -1.10683,-0.59235 -3.61699,-1.077 -5.57815,-1.077 -2.82547,0 -3.56574,-0.391 -3.56574,-1.88337 0,-1.98728 -4.24119,-3.82221 -4.83333,-2.09111 -0.18334,0.53596 -1.01962,0.97448 -1.85841,0.97448 -1.111194,0 -1.36132,0.65246 -0.921667,2.40417 0.498933,1.98791 -0.01163,2.76706 -2.948752,4.5 -1.953689,1.15271 -4.490769,2.09583 -5.637956,2.09583 -2.021875,0 -2.065466,0.31411 -1.422447,10.25 1.099322,16.98666 2.715698,26.50022 6.498761,38.25 l 0.965906,3 0.07895,-2.78212 c 0.104723,-3.69048 2.795284,-10.01123 3.956107,-9.2938 0.50548,0.31241 1.24004,3.76412 1.63234,7.67048 l 0.71327,7.10246 3.16774,-5.72081 c 1.74226,-3.14645 3.60464,-5.77828 4.13862,-5.84851 0.53398,-0.0702 1.1023,3.3598 1.26293,7.6223 0.16064,4.2625 0.54755,7.75 0.85979,7.75 0.31225,0 3.0323,-2.25247 6.04454,-5.0055 3.01225,-2.75302 5.88949,-4.75044 6.39388,-4.43871 1.25406,0.77505 0.13775,5.08772 -2.6387,10.19421 -2.46216,4.52842 -1.98617,5.09493 2.38264,2.83573 3.142038,-1.62481 10.165788,-3.12167 10.165788,-2.16647 0,0.35301 -1.575,2.02471 -3.5,3.71488 -1.925,1.69018 -3.5,3.47643 -3.5,3.96945 0,0.49303 1.77344,0.89641 3.94098,0.89641 4.71464,0 6.14182,1.50694 2.29737,2.42576 -2.67772,0.63998 -71.783938,2.37371 -99.929333,2.50702 -7.920744,0.0375 -14.449294,-0.35074 -14.775599,-0.87871 z"
             style="fill:#5e5e5e"
             inkscape:connector-curvature="0" />
          <path
             id="path42305"
             d="m -94.140493,639.09718 c 4.277721,-3.89535 13.419487,-2.89666 16.814114,-5.15116 -4.372889,-3.63325 -1.959631,-3.63765 2.197078,-2.79044 4.49384,1.45897 8.728582,-0.57931 3.132059,-4.226 -2.547007,-6.68267 6.249088,0.75321 9.020783,1.90515 1.074605,-3.01479 -1.152483,-9.48518 1.040879,-13.04849 4.421542,2.48302 6.076719,15.19485 9.957571,13.82753 3.346939,-21.71527 4.60525,-43.73991 6.006486,-65.63046 -2.932156,-1.19285 -4.851592,-3.57599 -5.645348,-6.54566 -4.393387,0.49905 -8.286688,5.47589 -11.817955,0.83087 -5.274981,2.22885 -12.424377,2.20919 -11.327982,-5.19883 -5.927488,-0.51661 2.333711,-9.68923 -5.698834,-4.76383 -6.975168,0.8808 -4.92434,-8.43217 -9.764693,-11.02382 -3.611635,-4.10913 -10.999165,-7.10374 -5.374877,-13.87186 -3.66616,-5.42081 1.646738,-12.99599 8.340642,-13.58865 5.674067,1.31811 4.688979,-7.4023 4.000383,-10.31115 -4.321567,-4.45863 5.298076,-9.3994 8.368593,-10.61313 1.99442,-3.75025 3.403602,-9.35324 8.02344,-10.26042 -2.88127,-5.43835 -0.306023,-11.16126 4.082444,-15.5866 -0.145017,-3.38592 13.454682,-10.24003 4.5,-8.02493 -7.650617,2.97679 1.042029,-4.98516 -0.75,-5.11064 -3.554416,-4.55282 6.953316,-9.34198 8.974437,-14.35796 4.957921,-1.80557 9.641476,-0.42825 13.25173,-4.69449 4.126709,-2.98743 9.284988,-2.38009 10.725128,3.10531 7.460033,-3.63018 11.950116,3.12002 15.950265,7.34337 2.9822228,0.96452 0.1396495,4.78445 5.3771803,4.84909 5.9700603,3.73751 -5.2760173,14.35976 4.06660595,11.05946 7.32793395,0.47009 5.01815045,7.86505 9.33529375,11.755 2.675399,5.09307 -2.6262184,10.11053 -1.63796,15.71729 3.041033,-0.3833 3.920918,6.89491 8.839928,7.34744 -0.467131,2.98502 -1.165945,4.47336 -3.064303,6.77634 4.26798,2.18399 6.002761,6.67537 6.886965,10.0467 5.96515,2.9191 3.931894,10.15634 -1.443068,10.27487 1.246933,4.9494 5.952831,7.53894 2.586849,12.10308 1.787312,6.32329 -11.3540201,2.91285 -3.798404,6.2313 2.260789,4.29609 8.915403,11.19547 1.271507,14.28132 0.527838,1.95045 3.645631,7.33992 -2.175126,7.5268 -6.389613,3.66621 -16.68318766,3.78488 -22.620988,-0.46979 -3.2460516,-6.02618 -9.090964,0.21267 -8.861519,4.5862 -2.384271,2.80258 -8.101277,2.72715 -9.660515,4.40829 0.961702,16.64244 1.564738,33.64359 7.398463,49.42024 1.325717,-2.7046 3.072031,-15.94502 5.865168,-6.79151 0.369024,2.32587 0.584522,15.16403 3.1017768,7.97834 1.7131724,-3.96605 6.3085213,-13.2788 6.5309504,-3.39172 1.088509,2.64384 -0.6967593,10.21906 1.0540656,10.3747 3.7803146,-3.23281 7.2617353,-6.89354 11.4951902,-9.53212 3.927719,3.66083 -9.0949293,17.68551 1.60004,12.62044 1.992373,-0.91752 13.32716,-4.91022 7.322443,-0.44911 -2.996873,2.80268 -9.6556019,8.17632 -1.13607,6.84879 8.585234,1.71905 -6.574837,3.20538 -9.2160271,2.75501 -32.3566739,0.78321 -64.7186119,1.62355 -97.0791389,2.11417 -2.017673,-0.11705 -4.119901,0.10407 -6.04565,-0.65433 z"
             style="fill:#3db51c"
             inkscape:connector-curvature="0" />
          <path
             id="path42303"
             d="m -94.140493,639.09718 c 4.277721,-3.89535 13.419487,-2.89666 16.814114,-5.15116 -4.37074,-3.63187 -1.961797,-3.63825 2.195122,-2.79066 4.493336,1.45873 8.732172,-0.57771 3.134015,-4.22578 -2.547176,-6.68228 6.247726,0.75214 9.019239,1.90425 1.078574,-3.00867 -1.152416,-9.48608 1.042423,-13.04759 4.421542,2.48302 6.076719,15.19485 9.957571,13.82753 3.361459,-21.72588 4.578204,-43.75718 6.031121,-65.66102 -1.662619,-1.69658 -7.418798,-2.6265 -0.939272,-2.17384 5.560246,-7.56625 -5.134646,-13.58542 -11.125234,-7.9167 -3.104467,-2.17479 -7.18006,-9.65886 1.02924,-8.0508 4.012132,-1.44087 -7.907119,-4.13909 -9.346301,-5.41158 2.75743,-6.54052 0.316017,3.27346 4.251272,-0.85248 4.358945,2.49703 8.131671,-10.05898 8.901095,-4.21543 -2.578985,4.09829 10.9836,15.15328 8.421254,3.78026 2.013621,-7.14404 -2.832043,-21.50701 7.469124,-22.24318 4.83218,-1.19342 8.987372,-1.76506 3.498629,2.69088 -3.658182,6.9225 10.934119,-5.58178 5.340835,1.47969 -3.826862,6.71194 5.905239,-4.08726 4.468806,3.48163 1.715259,4.47519 -3.212715,21.43821 5.420888,13.98247 2.299057,-2.76606 2.074665,-8.36746 8.029731,-6.2608 -3.995904,1.25514 -7.678023,2.02516 -1.690001,3.06634 3.4347249,0.38147 11.64006042,3.64068 9.9828358,5.51305 -1.9285812,-1.30865 -11.0113158,-1.99399 -7.8506738,0.69629 4.5693706,0.65772 16.0558952,-1.57797 12.6095536,3.50431 -1.2601871,4.64461 2.8022872,6.79936 6.3783714,8.51769 -7.3711987,0.89774 -9.67604144,-9.44378 -18.1642015,-5.15897 -7.2311065,0.63604 -17.0217705,3.93719 -15.1125245,13.06176 0.216459,5.59399 4.525554,4.82865 5.15432,1.41884 3.939595,4.60407 -7.769986,2.11559 -5.731483,6.35427 0.977686,16.12799 1.517952,33.06981 7.498297,47.96543 0.982303,-3.02952 3.026222,-15.77075 5.684254,-6.7489 0.369069,2.32514 0.584383,15.16247 3.101214,7.97946 1.7132463,-3.96607 6.308905,-13.28049 6.5315132,-3.39284 1.0880896,2.64464 -0.6961173,10.21739 1.0537983,10.37494 3.7803997,-3.2329 7.2619028,-6.89371 11.4954575,-9.53236 3.927719,3.66083 -9.0949293,17.68551 1.60004,12.62044 1.991558,-0.91714 13.325782,-4.90981 7.323345,-0.44998 -2.996838,2.8028 -9.6571208,8.17717 -1.136972,6.84966 8.585234,1.71905 -6.574837,3.20538 -9.2160271,2.75501 -32.3566739,0.78321 -64.7186119,1.62355 -97.0791389,2.11417 -2.017673,-0.11703 -4.119948,0.10403 -6.04565,-0.6543 z m 78.326758,-76.10504 c 2.827034,-1.36539 -5.084752,-4.00635 -0.07712,-3.52892 -2.247208,-4.92739 5.171086,-2.91812 7.0175537,-6.05183 2.151408,3.427 3.73133,7.88236 9.25027655,6.38379 7.20778355,2.55372 -7.71374235,2.57451 -7.55037715,-2.2177 -6.8335831,-6.38701 -7.8956811,8.29995 -8.6403341,5.41466 z M 5.14009,561.48988 c 4.934658,-2.02086 9.294875,-1.68523 13.954596,-4.6207 0.454971,-2.86556 -10.3612927,-6.91267 -2.857219,-4.90901 10.324579,6.24944 -5.843113,10.19215 -11.125677,10.44382 l -0.8669088,0.35381 z m -66.55598,-2.10632 c -4.608341,-1.167 -17.038201,2.7445 -12.106695,-7.52135 0.777122,2.28968 -1.236978,10.0656 3.121308,5.46432 3.109084,3.46132 10.417185,-4.37931 10.364425,2.43604 4.245097,-3.45309 5.42921,-2.87499 9.877071,-3.33269 1.223225,3.2709 -7.355693,0.37201 -9.771313,4.36709 l -0.837956,-0.35832 -0.64684,-1.0551 z m -15.857047,-7.50068 c -0.900386,-4.02597 4.549533,-6.60591 0.865446,-1.23652 0.341326,1.25976 0.578857,3.2891 -0.865446,1.23652 z m 96.737227,-1.7039 c 5.907341,-4.87666 -7.01829,-5.58307 -0.991871,-9.32577 -5.054131,-3.49964 -0.799965,-5.374 1.217205,0.60989 1.625758,3.11984 4.201399,9.71552 -1.170636,9.80919 z m -103.960251,-3.31677 c -2.327137,-5.3946 -5.535811,-10.22253 -10.539749,-14.18045 -6.07636,-2.82831 1.745873,-10.36998 -1.792381,-14.17717 -0.0086,-8.54068 11.686755,-6.91211 13.647463,-11.24652 -0.700686,-3.99069 2.260547,-7.32742 -1.549428,-9.93208 2.287509,-7.01579 5.732939,-2.51471 0.998562,-0.0283 4.236481,2.22157 3.271032,3.12177 2.142781,5.80083 0.259151,3.36639 0.971861,8.68281 -5.196997,7.74457 -4.818739,1.1906 -8.148059,3.13962 -8.843003,8.00542 -1.680765,1.94829 5.377105,1.84258 0.772864,5.36094 -3.872594,5.04899 -0.543538,8.63888 3.013889,7.02207 -1.042009,4.59715 1.207212,3.43566 3.000612,3.75916 -1.994022,5.70423 9.008211,2.35692 3.111695,8.06676 3.867877,0.29328 0.54415,5.58474 4.943305,5.52392 -1.495002,0.53796 -3.339547,-0.037 -3.709613,-1.71919 z M 6.88096,536.19554 c 0.1164275,-4.73575 12.701874,1.69282 12.735428,-4.92083 -1.445686,-3.89039 5.510481,-4.28789 -1.156081,-6.31359 -7.030802,0.60312 3.008269,-3.34152 -3.216817,-4.09723 4.570708,-1.10934 -6.1463769,-7.27945 0.88515,-5.04752 2.495339,3.52522 4.137971,8.30945 6.397645,11.92337 -3.180493,2.69824 -1.420746,10.25025 -8.124667,7.74399 -1.278926,2.08159 -5.5733324,1.54851 -7.520658,0.71181 z m -93.017258,-7.09158 c -2.258921,-3.72129 -0.195383,-14.49357 2.350588,-11.42146 -5.286646,3.97303 4.100883,2.3869 -0.885071,5.72282 -3.776351,7.59581 2.926184,4.37378 5.786685,0.97891 1.516904,6.38251 2.600845,-4.55967 5.99787,-3.28602 0.951918,-5.46879 7.181252,4.42145 8.976826,-2.00902 2.171654,0.0334 6.607262,-2.92951 3.12369,-5.22698 7.843372,5.20585 -7.279496,10.11656 -12.011286,9.08276 -2.849564,2.66936 -3.749947,5.78181 -8.471943,5.05892 -1.237323,1.13138 -3.346901,2.89181 -4.867359,1.10007 z m 89.100588,0.0525 c 6.453519,-2.53049 -5.5006247,-1.46229 0.1995738,-5.4597 -3.13999585,0.50679 -2.97771021,-4.51536 -6.347671,-3.35354 9.1354988,-1.06195 -4.1608972,-3.15221 -2.3519028,-4.40208 5.66881618,-1.09078 -8.720855,-4.09797 -2.15259,-5.26148 5.8598301,2.66745 7.33808443,7.75149 11.9189498,11.86984 1.5163597,3.45355 4.0784956,8.07321 -2.8998685,6.99847 z m -49.75,-12.35329 c 2.563897,-4.08822 8.773392,-5.42997 11.446004,-9.34829 5.465452,-4.33557 -2.813848,7.48376 -6.807572,6.3293 -0.405514,0.81011 -2.773739,6.44731 -4.638432,3.01899 z m 69.05497,-1.44098 c 1.643271,-6.04682 -8.888944,-5.14371 -4.061352,-10.50098 -2.878791,-1.38313 -6.341821,1.24875 -3.378078,-3.58299 1.792034,-2.61426 4.185724,6.22194 4.83973,7.58397 4.447046,-1.02305 3.770052,13.2432 2.5997,6.5 z m -37.492842,-5.80131 c 1.136861,-7.03184 13.7066414,0.90625 4.230866,-0.30077 1.1190222,-5.79959 -4.495054,3.56032 -4.230866,0.30077 z m -43.895461,-7.36536 c -1.414755,-7.9231 6.148991,-12.51027 12.192782,-16.43282 5.922642,-1.3189 14.544741,-6.41496 19.140551,-2.99336 4.164916,4.30797 -3.288746,3.64353 -1.53686,-0.68288 -2.262388,0.0593 -3.999256,4.98576 -4.105195,0.46064 -2.602578,3.54109 -4.076291,3.29772 -6.064195,1.79168 -0.137634,4.18057 -3.076313,-0.2872 -4.79375,2.16174 -5.96305,-0.7458 -4.897815,4.37821 -10.68773,6.36092 0.114875,2.88277 -5.899783,9.12196 -1.895603,9.88471 l -1.314063,-0.11391 -0.935937,-0.43676 z M 9.85734,499.17193 c 2.263522,-2.73826 4.71538,-2.48061 2.06057,-4.41334 8.099723,-2.96681 0.678669,7.51991 -2.06057,4.41334 z m 4.35695,-6.36733 c -2.131973,-0.68448 -6.1052887,-0.71634 -2.082596,-3.64551 -0.102038,1.894 7.238423,3.5042 2.082596,3.64551 z m -93.25,-0.60467 c 3.157923,-7.95238 3.591127,2.83364 0,0 z m 69.25,-0.19905 c 4.1837393,0.32386 6.3959818,-0.83001 1.79448,-3.95709 -2.075855,-2.95522 -4.275989,-4.97648 -1.4119116,-7.10102 -8.1005974,-0.81196 4.1498326,-3.29697 0.2144007,2.044 1.249399,2.66098 9.58280298,10.54431 1.2381872,9.80748 -0.5586623,-0.19367 -1.5632513,-0.0782 -1.8351563,-0.79337 z m -65,-3.13867 c 1.80183,-3.85931 3.372012,-9.28355 7.917556,-10.22538 -2.88127,-5.43835 -0.306023,-11.16126 4.082444,-15.5866 2.019617,-3.43332 7.342991,-8.41055 8.865469,-9.70112 -0.76093,5.37724 -7.426204,8.33948 -8.789865,12.5131 -6.738437,1.36909 4.638775,5.17983 -2.373853,5.38138 -5.375835,1.42802 5.606821,10.82887 -3.448916,9.41349 -4.190047,-0.21192 -1.677829,10.08545 -5.959085,9.61763 z m 82.5,-1 c -2.7416227,-2.38629 -3.2115969,-2.21651 -1.8899508,-5.53874 -3.1544588,-1.81183 4.0959647,-5.67943 0.5812008,-8.93012 3.3415616,-3.61475 -0.3935071,-6.68328 -3.6019648,-8.37159 4.6337449,-5.15836 -6.7492263,-6.26745 -10.8282239,-7.76074 -5.5958593,-3.98055 8.83831245,1.12168 2.9104337,-5.374 -2.6941681,-4.77297 5.17733923,-0.48717 1.3956138,3.35621 -5.1318897,5.037 10.2004819,-0.40738 8.2727825,6.20265 1.9984764,4.984 6.9762307,9.79849 4.1004375,14.92437 -1.4766246,3.33737 -2.8752616,8.79874 0.2146812,8.94859 0.9209632,1.9911 1.73997,7.00173 -1.15501,2.54337 z m -32.5,-2 c 2.712158,-3.69332 0.955486,3.1944 0,0 z m 14.09917,-8.40134 c -4.87952,-1.43384 4.589195,-4.76157 -2.546707,-3.18314 -3.796497,-2.58158 8.2624591,-1.67461 3.056888,2.52338 4.1447448,0.1875 2.314301,3.51819 -0.510181,0.65976 z m -12.802524,-6.34866 c -1.752879,-3.05032 -3.4299,2.90902 -3.732021,-1.84685 -3.343465,-0.49988 -5.37868,-0.3111 -8.462445,-0.0663 0.974317,-11.4306 11.390527,5.69667 16.941234,-0.5731 2.957143,-3.40529 10.5922104,4.0208 3.246907,3.40015 -2.801813,2.12332 1.298013,-7.57475 -3.664836,-2.07167 -1.266262,1.98392 -2.370503,4.50184 -4.328839,1.15778 z m -9.296646,-4.30902 c -2.601946,-3.34824 -1.876018,5.00303 0,0 z m -10.871991,-8.20538 c -1.27608,-7.01935 0.386174,-15.90102 8.880013,-15.24527 3.764389,-2.80711 9.437888,0.18961 12.889855,0.54055 -3.274205,4.70238 9.261317,6.84958 2.102123,8.90696 6.11608,-5.63553 -7.49284,0.62645 -3.415689,-7.29696 -1.040125,-5.33301 -6.947255,4.97464 -6.109006,-2.16284 -5.264412,-3.14523 -5.159823,6.77232 -10.259102,1.58198 -4.041157,0.971 0.159548,4.72564 -1.311254,4.86102 -0.189934,3.02779 -2.712363,7.5895 -0.52595,11.74349 -2.196956,1.39357 -2.593955,-1.47648 -2.25099,-2.92893 z m -18.128009,-4.17658 c 0.588855,-7.83001 4.440866,6.43972 0,0 z m 3.43834,-3.45925 c -5.895583,-3.9978 5.116018,-9.11794 6.699746,-13.8408 4.941887,-5.74815 -0.08982,6.21062 -4.204006,6.0158 -0.654661,3.40679 -6.846392,7.00495 0.215701,5.1457 3.114084,0.54018 -3.838028,4.65583 -2.711441,2.6793 z m 53.56166,-4.09977 c -2.3630311,-3.50945 4.86799083,2.97336 0,0 z m -9.916667,-1.37282 c 2.676506,-1.27079 8.1359476,-5.57227 5.7409867,-0.62533 3.9750806,1.14194 -5.0116597,1.05122 -5.7409867,0.62533 z m 0.416667,-4.62718 c 0.242323,-2.73656 7.9400051,2.73112 1.08009,0.68562 z m 0.25,-1.75739 c -1.505364,-3.0897 -7.983828,-0.68422 -4.316226,-4.66635 -5.06514,-1.18748 -5.48876,-1.89375 0.01272,-1.12412 0.607695,1.56475 10.670667,6.69291 4.303506,5.79047 z m -15.714565,-1.99261 c 1.483658,-5.20754 2.44112,-4.28967 5.192353,-2.75988 -0.997481,0.74596 -4.321148,4.84205 -5.192353,2.75988 z m -13.585435,-1.15294 c -8.421258,-3.59849 4.351565,0.94814 4.860245,-4.49925 3.100751,-1.38937 9.393894,-4.07553 3.512004,0.52024 -5.356723,-2.25516 -3.909135,6.85508 -8.372249,3.97901 z"
             style="fill:#86340c"
             inkscape:connector-curvature="0" />
          <path
             id="path42301"
             d="m -94.140493,639.09718 c -0.661908,-1.07099 10.886271,-4.23497 15.457176,-4.23497 2.182844,0 2.186235,-0.0241 0.302595,-2.14761 l -1.904988,-2.14761 5.75,0.65635 c 6.117871,0.69833 6.967156,0.0504 3.75,-2.86113 -1.91073,-1.72919 -2.734498,-4.5 -1.337858,-4.5 0.364179,0 2.648618,1.16415 5.076531,2.587 l 4.414389,2.58701 -0.161785,-5.33701 c -0.317224,-10.46471 0.695434,-10.5242 5.736195,-0.337 2.041104,4.125 4.034847,7.5 4.43054,7.5 0.395693,0 0.936335,-1.9125 1.201427,-4.25 0.265091,-2.3375 1.008272,-8.525 1.651511,-13.75 0.64324,-5.225 1.53477,-15.17608 1.981179,-22.11351 0.446408,-6.93743 1.13367,-16.04993 1.527249,-20.25 0.681619,-7.27388 0.617855,-7.63649 -1.342873,-7.63649 -1.132159,0 -2.296411,-0.38499 -2.587226,-0.85554 -0.290815,-0.47055 0.582628,-0.64309 1.940983,-0.38343 2.331003,0.4456 2.469738,0.2188 2.469738,-4.03746 0,-3.18967 -0.462978,-4.68725 -1.581787,-5.11658 -2.500649,-0.95959 -8.238536,-0.70673 -8.918213,0.39301 -0.339919,0.55 -1.116476,1 -1.725684,1 -0.609207,0 -0.810316,-0.29733 -0.446909,-0.66074 0.363408,-0.36341 -0.31357,-1.15091 -1.504395,-1.75 -1.190825,-0.59909 -2.237955,-2.10176 -2.326955,-3.33926 -0.139474,-1.9393 0.332932,-2.25459 3.421062,-2.28327 l 3.582881,-0.0333 -2.360784,-1.96673 c -1.298431,-1.0817 -3.585931,-1.96673 -5.083333,-1.96673 -1.497402,0 -2.991544,-0.26899 -3.320315,-0.59777 -0.789291,-0.78929 0.239868,-3.40223 1.340036,-3.40223 0.473895,0 0.566496,0.7875 0.20578,1.75 -0.5284,1.40994 -0.37656,1.53152 0.781385,0.62571 0.790477,-0.61836 2.40343,-0.96575 3.584339,-0.77198 1.598052,0.26222 2.30615,-0.28136 2.769052,-2.12571 0.342069,-1.36291 1.250871,-2.47802 2.019559,-2.47802 0.768688,0 1.624588,-0.5625 1.902,-1.25 0.314538,-0.77951 0.534102,-0.62268 0.583334,0.41667 0.04342,0.91666 -0.483553,1.85968 -1.171053,2.09558 -1.400144,0.48045 6.285054,8.73775 8.132353,8.73775 0.690367,0 1.129451,-2.19824 1.148523,-5.75 0.02989,-5.56647 1.626406,-20.24062 2.272422,-20.88663 0.17498,-0.17498 1.415821,-0.51988 2.757424,-0.76645 1.341603,-0.24656 2.439278,-0.51211 2.439278,-0.5901 0,-0.078 1.545967,-0.34178 3.435482,-0.5862 l 3.435482,-0.4444 -2.185482,2.32634 c -3.864342,4.11341 -2.024798,5.14334 2.910148,1.62935 3.194616,-2.27477 3.842508,-1.62602 1.243834,1.24548 -2.203147,2.43445 -0.883195,3.62466 1.56384,1.41012 1.830202,-1.65631 1.947613,-1.63259 2.634719,0.53229 0.395535,1.24622 0.667903,6.02655 0.605261,10.62296 -0.122114,8.96037 -0.281939,8.80643 5.085874,4.89873 2.009796,-1.4631 2.45405,-2.31828 1.685434,-3.2444 -1.275986,-1.53747 1.761397,-3.44353 5.269668,-3.3069 1.76981,0.0689 1.49062,0.33275 -1.18426,1.11908 l -3.5,1.0289 4.74187,1.4088 c 2.60803,0.77485 5.00218,1.28376 5.32034,1.13092 0.31816,-0.15284 1.02448,0.51907 1.56959,1.49314 0.54512,0.97407 1.38237,1.52923 1.86056,1.23369 0.47819,-0.29554 1.1521,-0.08 1.49756,0.47897 0.81079,1.31188 -1.61331,1.30009 -5.09801,-0.0248 -2.08913,-0.79428 -3.06444,-0.71495 -4.11405,0.33466 -1.16767,1.16768 -1.10366,1.3738 0.42319,1.36282 0.98942,-0.007 4.72395,0.0816 8.29895,0.19714 5.95061,0.19233 6.33593,0.33418 4.55887,1.67828 -1.06762,0.80751 -1.39655,1.4682 -0.73095,1.4682 0.79152,0 0.99311,0.86488 0.58272,2.5 -0.47449,1.89052 -0.23534,2.5 0.98095,2.5 0.88463,0 1.60841,0.6437 1.60841,1.43045 0,0.78675 1.0125,1.62546 2.25,1.86382 2.00549,0.38627 1.96278,0.44817 -0.39301,0.56955 -1.52687,0.0787 -2.88609,-0.49727 -3.21862,-1.36382 -0.31658,-0.825 -1.26472,-1.5 -2.10699,-1.5 -0.84226,10e-6 -1.53138,-0.73961 -1.53138,-1.64359 0,-3.0202 -17.888863,-0.32391 -22.135223,3.33632 -3.569269,3.0766 -3.286955,13.30728 0.367212,13.30728 1.350925,0 1.798717,-0.4776 1.406385,-1.5 -0.354392,-0.92353 0.0023,-1.5 0.928195,-1.5 1.193921,0 1.283235,0.41213 0.433431,2 -0.651425,1.2172 -2.093823,2 -3.685224,2 h -2.614857 l 0.67461,11.75 c 0.723061,12.59388 2.813265,27.21361 4.469716,31.263 0.559537,1.36785 1.33125,3.837 1.714917,5.487 0.664943,2.85965 0.755367,2.75297 1.932838,-2.2803 0.679393,-2.90416 1.491687,-5.53672 1.805099,-5.85013 1.278681,-1.27869 2.710121,0.97382 2.821211,4.43945 0.0651,2.03004 0.43322,5.04098 0.81809,6.69098 l 0.69977,3 2.89023,-5.75 c 1.58963,-3.1625 3.19024,-5.75 3.55692,-5.75 0.97399,0 1.91668,5.511 1.91668,11.20499 v 4.95498 l 5.69962,-5.07998 c 3.13479,-2.794 6.05979,-5.07999 6.5,-5.07999 1.60181,0 0.74154,4.81279 -1.67149,9.35106 -2.72225,5.11987 -1.91996,5.92163 3.27153,3.26938 1.48519,-0.75876 4.27534,-1.68591 6.20034,-2.06033 l 3.5,-0.68076 -4.25,4.09644 c -2.3375,2.25305 -4.25,4.3052 -4.25,4.56033 0,0.25513 1.77344,0.46388 3.94098,0.46388 5.9537,0 5.82148,1.7781 -0.17748,2.38667 -2.89492,0.29368 -18.5385,0.77145 -34.7635,1.06171 -16.225,0.29026 -39.893413,0.82693 -52.596472,1.19261 -16.014929,0.461 -23.299397,0.33651 -23.758311,-0.40602 z m 66.604783,-3.89097 c 9.737396,-0.64481 9.75,-0.6491 9.75,-3.31537 0,-2.88833 -3.41068,-19.6466 -4.992122,-24.52863 -3.663793,-11.31041 -5.864044,-51.54867 -3.007878,-55.00817 2.567162,-3.10945 9.582177,-5.52221 17.92648,-6.16568 9.45061,-0.72878 9.78237,-2.32615 0.48312,-2.32615 -7.217625,0 -9.029132,-1.55296 -5.87589,-5.03725 3.00736,-3.3231 0.4996,-2.17688 -4.625709,2.11428 -6.914736,5.78934 -8.394907,5.15872 -8.459022,-3.60391 -0.0793,-10.83817 -0.177957,-11.19143 -3.602617,-12.89988 -1.734501,-0.86528 -3.759501,-1.57324 -4.5,-1.57324 -0.786216,0 -1.346362,-1.09105 -1.346362,-2.62244 0,-2.21768 -0.23152,-2.43031 -1.5,-1.37756 -0.825,0.68469 -1.513684,0.85229 -1.530409,0.37244 -0.01672,-0.47984 -0.474786,-0.11049 -1.017913,0.82078 -0.543128,0.93127 -1.274745,7.36066 -1.625816,14.28753 -0.351071,6.92688 -0.980248,12.80565 -1.398171,13.06394 -1.256597,0.77662 -5.918305,-1.39135 -9.707029,-4.51433 -4.122999,-3.39853 -6.528199,-3.05912 -2.552942,0.36025 3.155793,2.7145 2.42168,4.60939 -1.785754,4.60939 -1.745356,0 -2.741529,0.41821 -2.381966,1 0.339919,0.55 3.430468,1 6.867887,1 9.228853,0 10.030689,0.90715 9.358309,10.58742 -0.302279,4.35192 -1.053091,15.33758 -1.668471,24.41258 -0.61538,9.075 -1.555115,18.65965 -2.088299,21.29922 -0.533184,2.63957 -0.969426,7.81754 -0.969426,11.5066 0,3.68906 -0.439912,8.24127 -0.977582,10.11601 -0.53767,1.87475 -0.713886,4.45928 -0.391592,5.7434 0.527583,2.10206 1.148301,2.33425 6.227582,2.3296 3.102876,-0.003 10.029092,-0.29572 15.391592,-0.65083 z m 11.721975,-72.21407 c 1.268547,-0.88105 1.233997,-1.11366 -0.25,-1.68312 -0.947086,-0.36343 -1.721975,-1.0892 -1.721975,-1.61282 0,-0.52361 0.520886,-0.6301 1.157524,-0.23664 0.798845,0.49372 0.976387,0.0227 0.572963,-1.51997 -0.457845,-1.7508 -0.241521,-2.10372 0.997933,-1.6281 0.923256,0.35429 2.55919,-0.3103 3.92704,-1.59532 1.98218,-1.86217 2.34454,-1.94381 2.34454,-0.52827 0,0.92087 0.675,1.67431 1.5,1.67431 0.85927,0 1.5,0.90105 1.5,2.10941 0,1.80303 0.48553,2.05272 3.34292,1.71913 2.0882,-0.24378 3.85876,0.16194 4.71725,1.08095 1.18191,1.26525 1.12245,1.37457 -0.42471,0.78086 -0.98947,-0.37969 -3.15436,-0.69035 -4.81087,-0.69035 -2.12217,0 -3.15918,-0.56347 -3.51066,-1.90755 -1.15536,-4.41807 -8.633072,-2.7371 -8.09748,1.8203 0.17354,1.47666 -0.298414,2.57313 -1.21645,2.82613 -1.311386,0.3614 -1.31491,0.28483 -0.02802,-0.60895 z M 5.14009,561.48988 c 0.94873,-1.16861 2.20347,-1.56106 3.75,-1.1729 1.27831,0.32083 2.3242,0.13888 2.3242,-0.40433 0,-0.54322 0.675,-0.72865 1.5,-0.41207 0.825,0.31659 1.5,0.0775 1.5,-0.53138 0,-0.60885 1.125,-1.10699 2.5,-1.10699 3.54944,0 3.21214,-2.90492 -0.5,-4.3061 -1.65,-0.62281 -3,-1.48372 -3,-1.91314 0,-1.16724 0.88361,-0.96259 4.13404,0.95749 3.37201,1.9919 3.58264,5.51265 0.36596,6.11722 -1.1,0.20674 -2.28662,0.83057 -2.63693,1.38628 -0.35032,0.55572 -2.42144,1.11108 -4.6025,1.23414 -2.18106,0.12307 -4.59444,0.60272 -5.36307,1.06589 -1.16297,0.70081 -1.15822,0.5474 0.0283,-0.91411 z m -66.55598,-2.10632 c -0.551836,-1.43806 -2.844501,-1.59959 -4.86982,-0.3431 -0.55,0.34121 -2.575,0.5385 -4.5,0.43841 -3.333302,-0.17331 -3.501533,-0.35903 -3.532188,-3.89932 -0.0177,-2.04454 0.340187,-3.71734 0.795313,-3.71734 0.455126,0 0.532029,1.575 0.170897,3.5 -0.634997,3.38482 0.615332,4.84719 2.095989,2.45144 0.439048,-0.71039 1.127667,-0.6505 2.135232,0.1857 0.995328,0.82605 1.71003,0.89213 2.160972,0.19981 0.370582,-0.56894 1.348785,-1.04527 2.173785,-1.0585 0.825,-0.0132 2.175,-0.1938 3,-0.40126 0.974225,-0.24498 1.397005,0.23621 1.206163,1.37281 -0.392326,2.33657 0.679718,2.20584 3.479386,-0.42431 1.575144,-1.47978 2.314451,-1.73532 2.314451,-0.8 0,1.06891 0.266667,1.10764 1.2,0.17431 1.763684,-1.76368 3.811773,-1.46096 3.721053,0.55 -0.05021,1.11289 -0.26764,1.27973 -0.597246,0.45826 -0.39563,-0.98601 -0.847284,-1.0187 -1.908318,-0.13812 -0.764511,0.63449 -2.037849,0.90502 -2.829641,0.60118 -0.791792,-0.30384 -1.977623,0.0958 -2.63518,0.88812 -1.533029,1.84719 -2.862828,1.83304 -3.580848,-0.0381 z m -15.857047,-7.50068 c -0.700713,-1.13378 1.37009,-5.47114 2.210748,-4.63048 0.308814,0.30881 0.0086,1.22764 -0.66711,2.04184 -0.675725,0.8142 -0.938293,1.95007 -0.583484,2.52417 0.354809,0.57409 0.420107,1.0438 0.145107,1.0438 -0.275,0 -0.772368,-0.4407 -1.105261,-0.97933 z m 96.737227,-1.7039 c 2.4513,-2.76542 2.18651,-4.19961 -1,-5.41623 -2.54988,-0.97354 -2.62051,-1.14506 -0.97061,-2.35698 1.5847,-1.16402 1.60512,-1.3739 0.18662,-1.91823 -0.87603,-0.33616 -1.31269,-1.06438 -0.97038,-1.61827 0.34232,-0.55388 0.0709,-1.00706 -0.60328,-1.00706 -0.67413,0 -0.92093,-0.30475 -0.54846,-0.67723 1.05611,-1.0561 4.70079,3.39721 4.08777,4.99471 -0.30063,0.78344 0.15426,1.69338 1.01087,2.02209 2.39091,0.91748 1.93315,5.39292 -0.69253,6.77076 -2.18331,1.14569 -2.19813,1.12217 -0.5,-0.79356 z m -103.960251,-3.31677 c -0.287656,-1.1 -0.973012,-2 -1.523012,-2 -0.55,0 -0.751636,-0.94974 -0.448081,-2.11054 0.398624,-1.52434 0.01439,-2.25111 -1.383368,-2.61663 -1.064408,-0.27835 -1.935288,-1.08046 -1.935288,-1.78247 0,-0.70201 -0.675,-1.5354 -1.5,-1.85199 -0.825,-0.31658 -1.5,-1.23343 -1.5,-2.03743 0,-0.80401 -1.0125,-1.60564 -2.25,-1.78139 -2.837211,-0.40295 -3.405005,-3.65223 -1.337017,-7.65128 1.370585,-2.65042 1.372538,-3.10138 0.0183,-4.2253 -1.05179,-0.87291 -1.196839,-1.57741 -0.473664,-2.30059 0.573309,-0.57331 1.042381,-1.75237 1.042381,-2.62014 0,-2.06596 3.503816,-5.02224 5.952414,-5.02224 1.061254,0 2.21898,-0.4683 2.572726,-1.04068 0.353746,-0.57237 1.469453,-0.77842 2.479349,-0.4579 1.593937,0.5059 1.794786,0.0825 1.522442,-3.20932 -0.172554,-2.08565 0.09978,-4.30205 0.605191,-4.92532 0.596798,-0.73597 0.384157,-1.33842 -0.606599,-1.71861 -1.919408,-0.73655 -1.967926,-3.34862 -0.09695,-5.2196 1.828928,-1.82893 2.571427,-1.8083 2.571427,0.0714 0,0.825 -0.675,1.5 -1.5,1.5 -2.349957,0 -1.755468,2.69486 0.75,3.3998 2.131285,0.59967 2.154869,0.70602 0.446997,2.01563 -1.327652,1.01806 -1.459474,1.49814 -0.5,1.82095 1.068701,0.35955 1.0695,0.72134 0.0044,2.01197 -0.829244,1.00488 -0.935381,1.79805 -0.293674,2.19465 1.980663,1.22412 -0.06966,3.73318 -2.543303,3.11234 -1.327301,-0.33314 -2.36442,-0.14646 -2.36442,0.42561 0,0.56048 -1.125,1.01905 -2.5,1.01905 -1.375,0 -2.5,0.45 -2.5,1 0,0.55 -0.727484,1 -1.616631,1 -1.124937,0 -1.457371,0.60901 -1.093004,2.00236 0.32308,1.23546 -0.110996,2.37833 -1.133368,2.98401 -1.468522,0.87001 -1.409474,1.05142 0.519126,1.59496 l 2.176122,0.61329 -1.922384,3.15269 c -3.241433,5.31591 -1.837429,10.16026 1.870139,6.45269 0.933333,-0.93333 1.2,-0.46168 1.2,2.12244 0,2.83991 0.217856,3.14165 1.5,2.07756 1.271022,-1.05485 1.5,-0.82824 1.5,1.48454 0,1.87117 0.421576,2.56766 1.340684,2.21497 0.737376,-0.28296 1.971114,-0.12484 2.741641,0.35137 1.115735,0.68956 1.14817,1.11862 0.159316,2.10748 -1.64298,1.64298 -1.57349,2.84164 0.164739,2.84164 0.891655,0 1.22369,0.69861 0.907216,1.90881 -0.335178,1.28172 0.106231,2.06492 1.34362,2.384 1.78968,0.46149 1.789655,0.47853 -8.36e-4,0.59119 -1.064218,0.067 -2.064725,-0.72951 -2.366631,-1.884 z M 6.88096,536.19554 c -1.53522,-1.53522 -0.32103,-1.89446 5.89226,-1.74335 5.19798,0.12642 6.44946,-0.12573 6.03138,-1.21523 -0.29015,-0.75611 -0.13379,-1.37475 0.34746,-1.37475 0.48124,0 0.63964,-0.9 0.35198,-2 -0.37495,-1.4338 -0.0307,-2 1.21606,-2 1.43247,0 1.5196,-0.26446 0.49419,-1.5 -0.68469,-0.825 -2.42729,-1.51431 -3.87244,-1.5318 -2.52625,-0.0306 -2.55272,-0.0884 -0.68643,-1.5 1.69265,-1.28026 1.72465,-1.4682 0.25,-1.4682 -1.92554,0 -2.35923,-1.98812 -0.44113,-2.02224 0.6875,-0.0122 0.13172,-0.88145 -1.23506,-1.9316 -2.86588,-2.20197 -2.20001,-3.75076 0.89941,-2.092 1.2297,0.65811 2.08565,2.10663 2.08565,3.5295 0,1.32731 1.15418,3.65868 2.56485,5.18081 2.25126,2.42916 2.37542,2.90603 1.01554,3.9004 -0.85212,0.62309 -1.31871,1.36348 -1.03687,1.64532 0.28184,0.28184 0.0431,1.74693 -0.53057,3.25576 -0.86481,2.27461 -1.46758,2.63676 -3.52798,2.11963 -1.42897,-0.35865 -2.48497,-0.19063 -2.48497,0.39537 0,1.12002 -6.26467,1.42105 -7.33333,0.35238 z m -93.017258,-7.09158 c -0.835036,-1.35111 -1.048175,-9.78752 -0.278727,-11.03251 0.411042,-0.66508 1.508291,-1.17761 2.438332,-1.13895 1.409267,0.0586 1.441085,0.18352 0.190983,0.75 -2.117936,0.95972 -2.236573,4.19777 -0.125709,3.43106 1.418052,-0.51506 1.402176,-0.33523 -0.124291,1.40783 -1.86513,2.12977 -2.390095,6.34082 -0.790469,6.34082 0.527742,0 2.102742,-1.2329 3.5,-2.73978 2.123106,-2.28968 2.540469,-2.44027 2.540469,-0.91667 0,2.78157 2.45633,1.36968 2.81113,-1.61583 0.213893,-1.79982 0.76082,-2.44547 1.75,-2.06589 0.883965,0.33921 1.43887,-0.0676 1.43887,-1.05484 0,-0.88385 0.675,-1.60699 1.5,-1.60699 0.825,0 1.500318,0.5625 1.500706,1.25 3.89e-4,0.6875 1.125389,1.3149 2.5,1.39421 1.619861,0.0935 2.499294,-0.38402 2.499294,-1.35699 0,-0.92355 0.57718,-1.27971 1.5,-0.92559 0.913711,0.35062 1.5,0.002 1.5,-0.89301 0,-0.80774 0.7301,-1.46862 1.622445,-1.46862 1.401355,0 1.435422,-0.23847 0.25,-1.75 -1.243871,-1.58606 -1.208501,-1.62143 0.377555,-0.37756 0.9625,0.75485 1.75,1.70755 1.75,2.11712 0,1.0917 -7.857531,6.10941 -9.28326,5.92816 -5.031375,-0.63963 -7.525217,0.18306 -8.154431,2.69004 -0.530726,2.11459 -1.117391,2.51928 -3.102058,2.13989 -1.373015,-0.26247 -2.94312,0.12925 -3.576346,0.89224 -1.231805,1.48423 -3.490728,1.8053 -4.234493,0.60186 z m 89.100588,0.0525 c 2.89347,-0.55731 2.93132,-2.29427 0.05,-2.29427 -1.71111,0 -1.93333,-0.26667 -1,-1.2 1.66996,-1.66996 1.49935,-2.8521 -0.31134,-2.15727 -1.08145,0.41499 -1.33546,0.12161 -0.89301,-1.03139 0.47544,-1.23899 -0.0419,-1.63437 -2.23866,-1.71102 -2.85194,-0.0995 -2.85257,-0.10102 -0.35699,-0.85968 l 2.5,-0.75999 -2.5,-0.99674 c -1.375,-0.54821 -3.175,-1.25083 -4,-1.56138 -1.19245,-0.44887 -1.14119,-0.58082 0.25,-0.64358 2.78539,-0.12566 2.02527,-2.07895 -0.80902,-2.07895 -1.40746,0 -2.30465,-0.41157 -1.99377,-0.91459 0.31089,-0.50302 0.0221,-1.09564 -0.64173,-1.31692 -0.82466,-0.27489 -0.86752,-0.61211 -0.1353,-1.06465 0.58942,-0.36428 2.09861,0.22833 3.35375,1.31692 1.25515,1.08858 2.71138,1.97924 3.23607,1.97924 0.52469,0 0.71645,0.619 0.42613,1.37554 -0.31058,0.80936 0.4686,1.82956 1.89301,2.47857 1.33147,0.60666 2.42086,1.73951 2.42086,2.51746 0,0.77795 0.66741,1.67056 1.48314,1.98359 0.81573,0.31302 1.23987,1.2031 0.94253,1.97794 -0.29734,0.77485 0.21093,1.69721 1.12948,2.04969 2.32377,0.89171 -0.0109,3.66772 -2.92759,3.48103 -2.03775,-0.13044 -2.03258,-0.15448 0.12244,-0.56955 z m -49.75,-12.35329 c 0,-0.58246 0.398839,-0.81252 0.88631,-0.51124 0.48747,0.30127 1.129075,-0.38057 1.425787,-1.5152 0.296713,-1.13463 1.472873,-2.30705 2.61369,-2.60538 1.140817,-0.29833 2.074213,-0.92581 2.074213,-1.39441 0,-0.46859 0.668746,-0.59536 1.486102,-0.28171 0.973688,0.37364 1.827163,-0.32679 2.475249,-2.03139 0.544031,-1.4309 1.562785,-2.59476 2.263898,-2.58634 0.906388,0.0109 0.946968,0.22762 0.140433,0.75 -0.623875,0.40408 -1.302454,1.62128 -1.507954,2.70488 -0.244631,1.28994 -1.682707,2.33748 -4.165059,3.03396 -2.085281,0.58507 -3.469202,1.38598 -3.075378,1.77981 0.393823,0.39382 0.191042,0.71604 -0.450624,0.71604 -0.641667,0 -1.166667,0.675 -1.166667,1.5 0,0.825 -0.675,1.5 -1.5,1.5 -0.825,0 -1.5,-0.47656 -1.5,-1.05902 z m 69.05497,-1.44098 c -0.10749,-3.76751 -0.93959,-5.03825 -3.90563,-5.96456 -1.71043,-0.53417 -2.05089,-1.03389 -1.25,-1.83478 2.15886,-2.15886 1.28387,-3.96346 -1.57397,-3.24619 -2.31245,0.58039 -2.50392,0.46559 -1.41391,-0.84778 0.69339,-0.8355 0.92442,-2.10129 0.51338,-2.81288 -0.41104,-0.7116 0.47377,-0.18075 1.96623,1.17966 1.97554,1.80074 2.55817,3.09263 2.1422,4.75 -0.40346,1.60749 -0.1325,2.27653 0.922,2.27653 2.12749,0 4.47235,5.04311 3.48723,7.5 -0.67765,1.69006 -0.81519,1.53509 -0.88753,-1 z m -37.492842,-5.80131 c 1.070357,-2.7893 4.065982,-3.94789 6.414842,-2.481 2.65135,1.65579 2.55195,2.25178 -0.40394,2.42193 -1.84783,0.10637 -2.28588,-0.2509 -1.83916,-1.5 0.3954,-1.10559 -0.2981,-0.83303 -2.12926,0.83685 -2.004613,1.82806 -2.539396,2.01716 -2.042482,0.72222 z m -43.895461,-7.36536 c -1.180702,-1.1807 -0.710936,-4.0517 0.878842,-5.3711 0.85003,-0.70546 1.299264,-1.92436 0.998298,-2.70867 -0.352452,-0.91847 0.460473,-1.80636 2.284063,-2.49469 1.5572,-0.58778 3.245465,-1.96906 3.751701,-3.06951 0.884192,-1.92205 12.110078,-6.33305 13.240518,-5.2026 0.272741,0.27274 1.069809,0.0196 1.771263,-0.56258 0.701454,-0.58215 2.880359,-1.25753 4.84201,-1.50083 3.007518,-0.37303 3.566638,-0.14042 3.566638,1.4838 0,1.0594 0.5625,2.15316 1.25,2.43057 0.6875,0.27741 0.279629,0.53991 -0.90638,0.58333 -1.678914,0.0615 -2.040575,-0.36389 -1.633369,-1.92105 0.607065,-2.32142 -1.479241,-2.76558 -2.348625,-0.5 -0.809853,2.11045 -2.419531,1.87948 -1.742359,-0.25 0.356026,-1.11958 -0.375756,-0.73926 -2.031385,1.05576 -1.805923,1.95797 -2.587882,2.33567 -2.587882,1.25 0,-0.85567 -0.45,-1.55576 -1,-1.55576 -0.55,0 -1,0.7301 -1,1.62244 0,1.32879 -0.271492,1.39713 -1.5,0.37756 -1.178236,-0.97785 -1.5,-0.98117 -1.5,-0.0155 0,0.68199 -0.667925,0.97313 -1.5,0.65383 -0.825,-0.31658 -1.5,-0.18185 -1.5,0.2994 0,0.48124 -0.970367,0.62123 -2.156372,0.31109 -1.477452,-0.38637 -1.931136,-0.19947 -1.440983,0.59362 0.393464,0.63663 0.212274,1.15752 -0.402645,1.15752 -0.614919,0 -0.86701,0.40616 -0.560204,0.90259 0.306807,0.49642 -0.904135,1.44197 -2.690983,2.1012 -1.827639,0.67429 -2.683958,1.41554 -1.95755,1.6945 0.900921,0.34598 0.523052,1.20784 -1.25,2.85105 -2.95625,2.73976 -3.281845,5.11048 -0.791263,5.76133 1.402122,0.36642 1.435254,0.48039 0.166667,0.57333 -0.870834,0.0638 -1.883334,-0.184 -2.25,-0.55067 z M 9.85734,499.17193 c -0.37965,-0.37965 0.55785,-1.2431 2.08334,-1.91878 2.19303,-0.97135 2.36543,-1.2455 0.82361,-1.30972 -1.42206,-0.0592 -1.65121,-0.38001 -0.84638,-1.18484 0.73416,-0.73416 1.67886,-0.78172 2.82186,-0.14206 1.58055,0.88452 1.54872,1.0803 -0.39726,2.44332 -1.16353,0.81496 -1.81836,1.77889 -1.45519,2.14205 0.36317,0.36317 -0.0147,0.66031 -0.8397,0.66031 -0.825,0 -1.81062,-0.31063 -2.19028,-0.69028 z m 4.35695,-6.36733 c 0,-0.68332 -0.83755,-0.95663 -2,-0.65264 -2.20467,0.57653 -2.46585,-0.0215 -1,-2.28975 0.64625,-1 0.97448,-1.08333 0.98469,-0.25 0.008,0.6875 0.66375,1.25 1.45629,1.25 1.84616,0 2.90253,1.66967 1.57533,2.48992 -0.55897,0.34546 -1.01631,0.0991 -1.01631,-0.54753 z m -93.25,-0.60467 c 0.6875,-0.27741 1.25,-1.14189 1.25,-1.92105 0,-0.77917 0.353571,-1.41667 0.785714,-1.41667 0.432143,0 0.785715,0.9 0.785715,2 0,1.37088 -0.640351,1.97517 -2.035715,1.92105 -1.119643,-0.0434 -1.473214,-0.30592 -0.785714,-0.58333 z m 69.25,-0.19905 c 0,-0.47373 1.19188,-0.63348 2.64862,-0.35501 2.07397,0.39646 2.46694,0.20365 1.81121,-0.88867 -0.46058,-0.76725 -1.65999,-1.98828 -2.66535,-2.71341 -1.00537,-0.72513 -1.598,-1.69048 -1.31695,-2.14522 0.28104,-0.45473 -0.23051,-1.11133 -1.13677,-1.45909 -1.48194,-0.56868 -1.45621,-0.77728 0.25574,-2.07298 1.82437,-1.38079 1.80165,-1.44201 -0.5465,-1.47249 -1.85572,-0.0241 -2.16921,-0.31259 -1.29238,-1.18942 1.6529,-1.6529 4.71546,0.88266 3.22919,2.67352 -0.74697,0.90003 -0.59252,1.42143 0.55105,1.86025 0.8739,0.33535 1.34599,1.00276 1.0491,1.48314 -0.29689,0.48038 0.34959,1.6783 1.43662,2.66205 2.90877,2.6324 2.48682,4.47866 -1.02358,4.47866 -1.65,0 -3,-0.3876 -3,-0.86133 z m -65,-3.13867 c 0,-1.1 0.45,-2 1,-2 0.55,0 1,-0.89486 1,-1.98857 0,-2.6186 2.933108,-5.97433 4.647052,-5.31663 0.917009,0.35189 1.352948,-0.29398 1.352948,-2.00448 0,-1.38801 -0.5625,-2.72736 -1.25,-2.97633 -1,-0.36215 -1,-0.8761 0,-2.56977 0.6875,-1.16439 1.25,-2.79437 1.25,-3.62218 0,-0.8278 0.9,-2.06715 2,-2.75411 1.1,-0.68696 2,-1.84792 2,-2.57991 0,-1.57584 1.4798,-3.15401 5.300227,-5.65254 1.579682,-1.03309 2.574077,-2.42066 2.281384,-3.1834 -0.285363,-0.74364 -0.08297,-1.35208 0.449774,-1.35208 1.66137,0 1.061751,2.90686 -1.031385,5 -1.1,1.1 -2.257143,2 -2.571429,2 -1.410096,0 -3.56793,3.19445 -3.057083,4.5257 0.373645,0.9737 -0.06637,1.4743 -1.295884,1.4743 -2.76901,0 -3.345065,2.67117 -0.756407,3.50746 2.102122,0.67912 2.108645,0.72263 0.180803,1.20615 -1.1,0.27588 -2.590935,0.98188 -3.313188,1.56888 -1.071788,0.87109 -1.033466,1.22382 0.208467,1.91884 0.83691,0.46836 1.284666,1.46915 0.995014,2.22397 -0.289652,0.75482 -0.01903,1.68612 0.601374,2.06955 0.766437,0.47368 0.54879,1.12069 -0.678991,2.01847 -1.270405,0.92894 -2.179044,1.01255 -3.059841,0.28155 -0.916227,-0.7604 -1.252835,-0.60385 -1.252835,0.58269 0,0.89234 -0.50246,1.62244 -1.116577,1.62244 -0.651791,0 -0.917644,1.04065 -0.638672,2.5 0.262848,1.375 0.09031,2.5 -0.383423,2.5 -0.47373,0 -0.861328,0.675 -0.861328,1.5 0,0.825 -0.45,1.5 -1,1.5 -0.55,0 -1,-0.9 -1,-2 z m 82.5,-1 c -0.34913,-1.1 -1.33455,-2 -2.18983,-2 -1.30231,0 -1.34244,-0.25619 -0.24692,-1.57621 1.08413,-1.3063 1.06229,-1.73179 -0.12755,-2.48469 -1.14957,-0.72742 -1.16526,-0.91153 -0.0787,-0.92379 0.80791,-0.009 1.1182,-0.63757 0.76686,-1.55316 -0.33821,-0.88135 0.0539,-1.785 0.91853,-2.11679 1.23922,-0.47553 1.28086,-0.85501 0.23314,-2.12476 -1.00833,-1.22203 -1.01535,-1.63341 -0.0335,-1.96389 0.88338,-0.29735 0.95787,-0.94893 0.25797,-2.25671 -0.69871,-1.30555 -0.6239,-1.97768 0.25799,-2.31812 0.68311,-0.26371 -0.2895,-1.04309 -2.16134,-1.73196 -3.02278,-1.11243 -3.21518,-1.39008 -1.72061,-2.48294 1.51852,-1.11036 1.5273,-1.2901 0.09,-1.84165 -0.87603,-0.33616 -1.34431,-1.01322 -1.04064,-1.50458 0.59586,-0.96411 -3.05565,-2.45194 -5.29571,-2.15776 -1.87664,0.24644 -7.12969,-2.00762 -7.12969,-3.05931 0,-0.46952 1.40144,-0.57339 3.11432,-0.23082 2.92462,0.58493 3.06869,0.47681 2.36522,-1.775 -0.41201,-1.31882 -1.17649,-2.67293 -1.69886,-3.00912 -0.52236,-0.3362 -0.10651,-0.83178 0.92412,-1.10129 1.56488,-0.40923 1.86693,0.0689 1.83182,2.89941 -0.0231,1.86419 -0.71582,3.84958 -1.53933,4.41197 -1.1015,0.75223 -0.66335,0.85884 1.65751,0.4033 1.82027,-0.35728 3.43154,-0.17144 3.80902,0.43932 0.35982,0.5822 1.51353,1.05855 2.56381,1.05855 1.22521,0 1.71722,0.50134 1.37281,1.39885 -0.29523,0.76937 -0.0488,1.70046 0.5477,2.0691 0.59647,0.36864 0.80336,1.12512 0.45976,1.68107 -0.34359,0.55595 0.3316,1.68064 1.50042,2.49932 1.16883,0.81868 1.85387,1.92743 1.52232,2.46389 -0.33155,0.53646 -0.0305,1.66496 0.66897,2.50779 1.03624,1.24859 1.01124,1.69343 -0.13495,2.40182 -0.77371,0.47818 -1.08618,1.18998 -0.69438,1.58178 0.3918,0.3918 0.20215,1.32714 -0.42146,2.07854 -0.6236,0.75139 -0.87343,1.62657 -0.55516,1.94483 0.31826,0.31826 0.14899,1.70875 -0.37615,3.08998 -0.8068,2.12204 -0.70214,2.41436 0.67518,1.88583 1.16067,-0.44539 1.46654,-0.19955 1.06232,0.85383 -0.31221,0.81363 -0.13732,1.74529 0.38866,2.07036 1.22632,0.75791 1.24277,2.47301 0.02372,2.47301 -0.51294,0 -1.21826,-0.9 -1.56739,-2 z m -32.5,-2 c 0,-0.55 0.476558,-1 1.059017,-1 0.582459,0 0.780902,0.45 0.440983,1 -0.339919,0.55 -0.816476,1 -1.059017,1 -0.242541,0 -0.440983,-0.45 -0.440983,-1 z m 14.09917,-8.40134 c -2.30401,-1.27682 -2.32417,-1.37865 -0.5,-2.52539 1.70156,-1.06966 1.60839,-1.14988 -0.8888,-0.76519 -1.772154,0.27299 -2.650095,0.0216 -2.407052,-0.68918 0.210424,-0.61539 1.465762,-0.9624 2.789632,-0.77112 3.17293,0.45844 3.43318,0.81335 1.92711,2.62805 -1.04491,1.25904 -0.98273,1.52417 0.3575,1.52417 0.89234,0 1.62244,0.45 1.62244,1 0,1.22502 0.0452,1.23128 -2.90083,-0.40134 z m -12.802524,-6.34866 c -1.043501,-1.53054 -1.323099,-1.56189 -2.229572,-0.25 -0.885741,1.28189 -1.038675,1.23574 -1.051761,-0.31739 -0.01146,-1.36005 -0.518603,-1.65765 -2.015313,-1.18261 -1.174521,0.37278 -2,0.1797 -2,-0.4678 0,-0.7802 -0.565537,-0.7999 -1.934259,-0.0674 -2.679769,1.43416 -3.065741,1.31895 -3.065741,-0.91513 0,-2.74219 3.082119,-4.31964 4.541206,-2.32422 0.618568,0.84594 3.15139,2.3074 5.628494,3.24769 4.32978,1.64356 4.595405,1.63547 6.873714,-0.2094 2.134042,-1.72804 2.484693,-1.76201 3.523481,-0.34139 0.634474,0.8677 1.666485,1.57763 2.293345,1.57763 0.62687,0 1.13976,0.47656 1.13976,1.05902 0,0.58246 -0.46971,0.76872 -1.0438,0.41391 -0.5741,-0.35481 -1.773741,-0.0439 -2.665879,0.69098 -1.447334,1.19216 -1.546869,1.03421 -0.923986,-1.46633 0.631109,-2.53356 0.5144,-2.70412 -1.216477,-1.77778 -1.053008,0.56355 -2.178379,1.71214 -2.500824,2.55242 -0.769858,2.00622 -1.883396,1.93241 -3.352388,-0.22222 z m -9.296646,-4.30902 c 0,-0.51754 -0.45,-0.94098 -1,-0.94098 -0.55,0 -1,0.70156 -1,1.55902 0,0.85746 0.45,1.2809 1,0.94098 0.55,-0.33992 1,-1.04148 1,-1.55902 z m -10.871991,-8.20538 c 0.154684,-1.79542 -0.04318,-3.78932 -0.439694,-4.4309 -0.396517,-0.64158 -0.332536,-1.40655 0.142179,-1.69994 0.474715,-0.29339 0.903907,-1.96803 0.95376,-3.72142 0.103288,-3.63279 1.751905,-5.12904 4.851324,-4.40296 1.213622,0.28431 2.669548,-0.14311 3.372444,-0.99005 1.326292,-1.59808 5.539551,-2.03139 6.388933,-0.65706 0.283243,0.4583 1.91043,0.62846 3.615969,0.37814 2.892196,-0.42448 3.080314,-0.26625 2.794028,2.35019 -0.249848,2.28343 0.158137,2.9191 2.193048,3.41694 2.74779,0.67225 3.369741,3.06723 1,3.85075 -1.333333,0.44085 -1.333333,0.29279 0,-1.33254 1.399668,-1.70619 1.320607,-1.78383 -1.181984,-1.16064 -2.093411,0.52129 -2.811613,0.25942 -3.272675,-1.19325 -0.32488,-1.02361 -0.307342,-2.5995 0.03897,-3.50198 0.883167,-2.3015 -3.157171,-2.20361 -4.504215,0.10912 -0.910287,1.56287 -1.022533,1.5094 -1.04969,-0.5 -0.02331,-1.72522 -0.61349,-2.25 -2.530406,-2.25 -1.375,0 -2.506891,0.3375 -2.515313,0.75 -0.0084,0.4125 -0.398113,1.35398 -0.865981,2.09217 -0.705819,1.11363 -1.209794,1.11789 -2.959728,0.025 -1.701989,-1.06291 -2.353526,-1.07266 -3.375659,-0.0505 -1.022134,1.02213 -1.005112,1.42821 0.08819,2.10391 1.138187,0.70344 1.13685,0.92398 -0.0084,1.37941 -1.124528,0.44721 -1.117204,0.55592 0.04184,0.62105 1.085444,0.061 0.993324,0.53387 -0.404949,2.07895 -1.040923,1.15021 -1.315624,2 -0.646514,2 0.853421,0 0.828102,0.54109 -0.09501,2.03051 -0.818266,1.32025 -0.908679,2.28219 -0.258476,2.75 1.656324,1.19171 1.608066,3.21949 -0.07662,3.21949 -1.170944,0 -1.504252,-0.83995 -1.295373,-3.2644 z m -18.128009,-4.17658 c 0,-0.79254 0.519529,-1.76207 1.154508,-2.15451 0.751678,-0.46456 0.881436,-0.27168 0.371885,0.55278 -0.455909,0.73768 -0.207315,1.63071 0.595492,2.1392 1.089938,0.69036 1.012173,0.87609 -0.371885,0.8882 -0.9625,0.008 -1.75,-0.63313 -1.75,-1.42567 z m 3.43834,-3.45925 c 0.383217,-0.62006 -3.36e-4,-1.09977 -0.879323,-1.09977 -1.970541,0 -2.003007,-1.38663 -0.07003,-2.99086 0.818944,-0.67967 1.242609,-1.6344 0.941479,-2.12164 -0.301131,-0.48724 1.053824,-1.8307 3.01101,-2.98547 1.975706,-1.1657 3.558524,-2.89765 3.558524,-3.89382 0,-0.98683 0.7875,-2.09404 1.75,-2.46047 1.403147,-0.53418 1.502248,-0.41665 0.5,0.59301 -0.6875,0.69259 -1.25,2.01466 -1.25,2.93793 0,0.9242 -1.354909,2.2399 -3.014589,2.92736 -1.658024,0.68678 -2.895524,1.8413 -2.75,2.56561 0.145524,0.72431 -0.635411,2.04766 -1.735411,2.94077 -1.942854,1.57744 -1.921424,1.60706 0.75,1.03666 3.260425,-0.69617 3.658354,0.89442 0.629323,2.5155 -1.490475,0.79768 -1.918692,0.80814 -1.440983,0.0352 z m 53.56166,-4.09977 c -0.90129,-0.58246 -1.02463,-0.97549 -0.30902,-0.98469 0.65504,-0.008 1.4691,0.43469 1.80902,0.98469 0.7673,1.24153 0.42112,1.24153 -1.5,0 z m -9.916667,-1.37282 c 0.229167,-0.20506 1.991667,-1.17459 3.916667,-2.15453 2.89822,-1.47537 3.27595,-1.5116 2.1969,-0.21073 -1.09675,1.3222 -1.01757,1.64502 0.5,2.03853 0.9917,0.25715 -0.1844,0.51975 -2.61357,0.58355 -2.42916,0.0638 -4.229163,-0.0518 -3.999997,-0.25682 z m 0.416667,-4.62718 c -0.731,-1.18278 0.247516,-1.18278 3,0 1.92824,0.82859 1.92138,0.86195 -0.19098,0.92971 -1.20504,0.0387 -2.469101,-0.37971 -2.80902,-0.92971 z m 0.25,-1.75739 c -0.9625,-0.21409 -1.75,-0.85875 -1.75,-1.43257 0,-0.57381 -0.9,-0.80795 -2,-0.52029 -2.212566,0.5786 -2.710983,-0.72362 -0.75,-1.95953 0.830411,-0.52337 0.242987,-1.00697 -1.75,-1.4407 l -3,-0.65289 2.781385,-0.11832 c 1.636262,-0.0696 3.018366,0.49925 3.356989,1.38169 0.316582,0.825 1.009602,1.5 1.540043,1.5 1.061797,0 4.281263,2.93414 3.690633,3.36355 -0.20298,0.14757 -1.15655,0.0932 -2.11905,-0.12094 z m -15.714565,-1.99261 c 0.01949,-0.4125 0.678544,-1.875 1.464565,-3.25 1.064611,-1.86234 1.438167,-2.06164 1.464565,-0.78139 0.0248,1.2027 0.560773,1.53102 1.785435,1.09368 0.986383,-0.35224 0.590294,0.31598 -0.907729,1.53139 -2.786714,2.26097 -3.866054,2.6597 -3.806836,1.40632 z m -13.585435,-1.15294 c -0.5225,-0.49661 -1.85,-1.15411 -2.95,-1.46112 -1.1,-0.307 -0.336805,-0.33485 1.695988,-0.0619 2.995297,0.40221 3.90248,0.11047 4.785184,-1.53888 0.599058,-1.11935 1.946805,-2.03518 2.994995,-2.03518 1.048189,0 2.183914,-0.45 2.523833,-1 0.339919,-0.55 1.111221,-1 1.714005,-1 0.602783,0 0.325658,0.85118 -0.615834,1.89152 -1.017447,1.12427 -2.500016,1.6854 -3.654988,1.38337 -1.118993,-0.29262 -1.943183,-0.004 -1.943183,0.67991 0,1.08965 -2.358897,4.0452 -3.228571,4.0452 -0.204286,0 -0.798929,-0.40632 -1.321429,-0.90294 z"
             style="fill:#24610d"
             inkscape:connector-curvature="0" />
          <path
             id="path42299"
             d="m -93.666795,639.04337 c -0.998124,-0.69469 0.581705,-1.40765 5.697406,-2.57119 3.893169,-0.88548 8.071902,-1.60997 9.286072,-1.60997 2.182555,0 2.185985,-0.0243 0.302595,-2.14102 l -1.904988,-2.14102 6.5,0.71495 6.5,0.71495 -2.75,-2.87865 c -2.508545,-2.6259 -3.601179,-5.26921 -2.17807,-5.26921 0.314562,0 2.564562,1.16776 5,2.59502 l 4.42807,2.59502 v -6.59502 c 0,-3.76571 0.432518,-6.59502 1.008186,-6.59502 0.554503,0 2.678181,3.375 4.719286,7.5 2.041104,4.125 4.042029,7.5 4.4465,7.5 0.825855,0 1.16232,-2.02394 2.826131,-17 1.411529,-12.70526 2.667636,-29.76303 3.555919,-48.28892 l 0.661154,-13.78893 -7.134139,0.18004 c -7.812941,0.19717 -7.95739,0.14654 -8.563745,-3.00201 -0.336381,-1.74669 0.164756,-2.28699 2.566808,-2.7674 2.843665,-0.56873 2.904867,-0.68528 1.294361,-2.46487 -0.92974,-1.02735 -2.858192,-1.88222 -4.285449,-1.89971 -2.404108,-0.0295 -2.462853,-0.13203 -0.798536,-1.39423 1.58556,-1.20247 6.520399,-1.05751 5.306999,0.15589 -0.261718,0.26172 0.692543,1.48086 2.120581,2.70921 3.103065,2.66914 2.339001,4.56093 -1.84209,4.56093 -1.745356,0 -2.741529,0.41821 -2.381966,1 0.339919,0.55 3.430468,1 6.867887,1 9.228853,0 10.030689,0.90715 9.358309,10.58742 -0.302279,4.35192 -1.053091,15.33758 -1.668471,24.41258 -0.61538,9.075 -1.555115,18.65965 -2.088299,21.29922 -0.533184,2.63957 -0.969426,7.81754 -0.969426,11.5066 0,3.68906 -0.439912,8.24127 -0.977582,10.11601 -0.53767,1.87475 -0.713886,4.45928 -0.391592,5.7434 0.527583,2.10206 1.148301,2.33425 6.227582,2.3296 3.102876,-0.003 10.029092,-0.29572 15.391592,-0.65083 9.737396,-0.64481 9.75,-0.6491 9.75,-3.31537 0,-2.88833 -3.41068,-19.6466 -4.992122,-24.52863 -3.663793,-11.31041 -5.864044,-51.54867 -3.007878,-55.00817 2.567162,-3.10945 9.582177,-5.52221 17.92648,-6.16568 9.45061,-0.72878 9.78237,-2.32615 0.48312,-2.32615 -7.109648,0 -9.031344,-1.55051 -6.03088,-4.86599 3.45624,-3.8191 1.36787,-3.07216 -3.832728,1.37085 -7.538347,6.44021 -9.031349,5.94264 -9.097013,-3.03174 -0.0793,-10.83817 -0.177957,-11.19143 -3.602617,-12.89988 -1.734501,-0.86528 -3.759501,-1.57324 -4.5,-1.57324 -0.786216,0 -1.346362,-1.09105 -1.346362,-2.62244 0,-2.21768 -0.23152,-2.43031 -1.5,-1.37756 -0.825,0.68469 -1.513684,0.85229 -1.530409,0.37244 -0.01672,-0.47984 -0.474786,-0.11049 -1.017913,0.82078 -0.543128,0.93127 -1.274745,7.36066 -1.625816,14.28753 -0.351071,6.92688 -0.980248,12.80565 -1.398171,13.06394 -1.348155,0.8332 -6.003759,-1.47312 -10.636139,-5.26901 -2.483963,-2.03542 -4.015729,-3.86762 -3.403924,-4.07156 0.611805,-0.20393 1.112372,-0.96014 1.112372,-1.68046 0,-0.72033 0.668415,-1.56618 1.485367,-1.87967 1.233391,-0.4733 1.281891,-0.24417 0.285901,1.35066 -1.009625,1.61667 -0.809469,2.33807 1.264633,4.55801 1.355254,1.45055 3.64519,3.252 5.088746,4.00321 l 2.624646,1.36584 0.641596,-7.21085 c 1.655356,-18.60445 1.836416,-19.71086 3.225608,-19.71086 0.760927,0 1.383503,-0.47656 1.383503,-1.05902 0,-0.58246 0.500312,-0.7498 1.111803,-0.37188 0.611492,0.37792 1.504602,0.067 1.984688,-0.69098 0.664299,-1.0488 0.876543,-1.07101 0.888196,-0.0929 0.01144,0.96028 0.50432,1.02348 1.949572,0.25 2.947094,-1.57723 3.79473,-1.23409 1.288247,0.52152 -1.222378,0.85619 -2.222506,2.20619 -2.222506,3 0,1.97837 2.90195,1.81419 5.421259,-0.3067 2.07761,-1.74905 2.077701,-1.74877 0.168205,0.50613 -2.227688,2.63065 -1.351295,4.20074 1.389396,2.48914 1.67389,-1.04536 2.023449,-0.7683 3.083608,2.44401 0.756185,2.29126 0.961898,6.1387 0.559637,10.46687 -0.349838,3.76408 -0.360184,6.84381 -0.02299,6.84381 1.696586,0 8.239389,-6.25728 7.783914,-7.44423 -0.285657,-0.74441 0.03083,-1.69352 0.703307,-2.10913 0.781867,-0.48322 0.965434,-0.33942 0.509157,0.39885 -0.44793,0.72477 0.02631,1.15451 1.274062,1.15451 1.093176,0 2.641156,0.65357 3.439966,1.45238 0.79881,0.79881 1.71209,1.19268 2.02951,0.87526 0.31742,-0.31742 2.05849,0.37142 3.86905,1.53077 1.90978,1.22288 2.62714,2.11497 1.70859,2.12474 -0.87084,0.009 -1.90035,-0.30017 -2.28782,-0.68763 -1.40525,-1.40525 -5.38702,-1.29183 -6.61555,0.18845 -1.10238,1.32829 -0.45234,1.51603 5.24925,1.51603 5.69338,0 6.6966,0.28871 8.01966,2.30796 1.04617,1.59665 1.2204,2.82944 0.56532,4 -0.75383,1.34703 -0.52898,1.69204 1.10278,1.69204 1.15528,0 2.04969,0.65455 2.04969,1.5 0,0.85452 0.96822,1.54992 2.25,1.616 1.9593,0.10102 2.00014,0.17967 0.3161,0.60874 -1.06365,0.27101 -2.41365,-0.14658 -3,-0.92797 -0.58636,-0.78139 -1.88212,-1.72715 -2.87948,-2.10168 -1.04516,-0.39248 -1.51032,-1.17133 -1.09801,-1.83847 0.5296,-0.85691 -1.47904,-1.02059 -7.73487,-0.63031 -9.831884,0.61339 -16.458387,3.3503 -17.4237,7.19641 -1.7999,7.17137 1.448106,47.33931 4.414205,54.59028 0.559537,1.36785 1.343086,3.837 1.741221,5.487 0.692538,2.87011 0.778205,2.76939 1.978537,-2.326 0.690061,-2.92929 1.490519,-5.56186 1.778795,-5.85013 1.237052,-1.23706 2.666112,1.07226 2.775512,4.48515 0.0651,2.03004 0.42659,5.04098 0.80336,6.69098 l 0.68504,3 2.67763,-5.17923 c 1.47269,-2.84858 3.07876,-5.42714 3.56902,-5.73014 1.04046,-0.64304 2.11987,5.03764 2.13563,11.23936 l 0.011,4.32998 5.69962,-5.07998 c 3.13479,-2.794 6.05979,-5.07999 6.5,-5.07999 1.5499,0 0.77337,4.26332 -1.65835,9.10477 -2.70234,5.38024 -1.9597,6.18151 3.25839,3.51567 1.48519,-0.75876 4.27534,-1.68591 6.20034,-2.06033 l 3.5,-0.68076 -4.25,4.09644 c -2.3375,2.25305 -4.25,4.3052 -4.25,4.56033 0,0.25513 1.77344,0.46388 3.94098,0.46388 6.46483,0 5.57373,1.79581 -1.18176,2.38157 -3.44257,0.2985 -19.53422,0.78443 -35.75922,1.07983 -16.225,0.29541 -39.175,0.79448 -51,1.10904 -13.121396,0.34906 -22.038212,0.19735 -22.881085,-0.38928 z m 35.036648,-2.18116 c 5.370975,0 6.261001,-1.40805 2.844437,-4.5 -1.1,-0.99549 -2.020297,-2.75273 -2.045104,-3.90499 -0.02481,-1.15225 -0.675947,-3.44501 -1.446978,-5.09501 -1.315407,-2.81496 -1.365787,-2.58366 -0.816801,3.75 0.32179,3.7125 0.267905,6.75 -0.119744,6.75 -0.387649,0 -2.324846,-1.23566 -4.304882,-2.7459 -3.25046,-2.47925 -3.486758,-2.53419 -2.433279,-0.56575 1.924212,3.59543 1.468973,4.62209 -1.7629,3.97571 -1.734245,-0.34685 -3.078521,-0.13943 -3.294438,0.50832 -0.200612,0.60184 -3.269753,1.46029 -6.820312,1.90768 -5.144938,0.64828 -4.241487,0.72273 4.450001,0.36668 5.998059,-0.2457 13.085559,-0.44674 15.75,-0.44674 z M 9.8668,635.39906 c -0.34152,-0.88999 0.69383,-2.46237 2.64302,-4.01393 l 3.20447,-2.55078 -4.37573,1.51393 c -7.89812,2.73262 -8.40098,2.36004 -5.46632,-4.05011 1.40102,-3.06022 2.30599,-5.80536 2.01105,-6.10029 -0.29494,-0.29494 -2.92862,1.87138 -5.85263,4.81404 l -5.31637,5.35029 -0.5255,-8 -0.52549,-8 -2.26914,5 c -3.1967,7.04388 -3.6724,7.83084 -5.00131,8.27381 -0.80002,0.26668 -1.17856,-1.2136 -1.17856,-4.60869 0,-7.58365 -1.07275,-9.36448 -2.575399,-4.27533 -1.054354,3.57088 -0.978495,5.13677 0.504159,10.40678 l 1.74526,6.20343 8.41299,0.5637 c 15.59784,1.0451 15.17459,1.06041 14.5655,-0.52685 z m -29.921297,-70.61701 c 0.353609,-1.3522 0.806902,-1.8055 1.05655,-1.05655 0.240481,0.72144 -0.03821,1.78716 -0.619313,2.36826 -0.742068,0.74207 -0.872211,0.35164 -0.437237,-1.31171 z M 0.21429,560.86221 c -0.90129,-0.58246 -1.02463,-0.97549 -0.30902,-0.98469 0.65504,-0.008 1.4691,0.43469 1.80902,0.98469 0.7673,1.24153 0.42112,1.24153 -1.5,0 z m 10,0 c 1.95837,-1.2656 3.28218,-1.2656 2.5,0 -0.33992,0.55 -1.37898,0.99311 -2.30902,0.98469 -1.45727,-0.0132 -1.48367,-0.14929 -0.19098,-0.98469 z m -26.289749,-2 c 0.287656,-1.1 1.090427,-2 1.783936,-2 0.693503,0 1.821123,-0.675 2.505813,-1.5 1.57683,-1.89997 2.66667,-1.91795 2.66667,-0.044 0,0.80081 -0.3567,1.23556 -0.79266,0.96612 -1.1447,-0.70745 -4.87401,1.83161 -4.87401,3.31843 0,0.6927 -0.407871,1.25945 -0.90638,1.25945 -0.49851,0 -0.671025,-0.9 -0.383369,-2 z m 9.604169,0.25 c -0.34254,-0.9625 -0.80498,-2.0875 -1.02763,-2.5 -0.22265,-0.4125 0.0193,-0.75 0.53762,-0.75 0.51834,0 1.15749,1.125 1.42034,2.5 0.54994,2.87681 -0.0121,3.32995 -0.93033,0.75 z m 20.68558,0.41667 c 0,-0.92647 0.77721,-1.65987 1.75,-1.65136 0.99868,0.009 1.32068,0.33573 0.75,0.76164 -0.55,0.41047 -1.3375,1.15358 -1.75,1.65135 -0.4125,0.49777 -0.75,0.15503 -0.75,-0.76163 z m -88.492921,-0.65522 c -0.350339,-0.56686 0.05106,-0.7345 0.940983,-0.39301 1.732417,0.66479 2.049387,1.38156 0.610955,1.38156 -0.517541,0 -1.215913,-0.44485 -1.551938,-0.98855 z m 6.492921,0.73344 c 0,-0.275 0.634938,-1.02695 1.410972,-1.671 1.087087,-0.90221 1.582985,-0.87292 2.160326,0.12755 0.412144,0.71421 0.38111,0.96496 -0.06896,0.55724 -0.450074,-0.40773 -1.422221,-0.24013 -2.160326,0.37244 -0.738108,0.61257 -1.342012,0.88877 -1.342012,0.61377 z m 5.638374,-1.24489 c -0.316583,-0.825 -0.139728,-1.5 0.393011,-1.5 0.532738,0 0.968615,0.675 0.968615,1.5 0,0.825 -0.176855,1.5 -0.393011,1.5 -0.216156,0 -0.652033,-0.675 -0.968615,-1.5 z m 4.361626,-0.0918 c 0,-0.0898 0.622448,-0.67986 1.383217,-1.31124 1.053907,-0.87466 1.503009,-0.83579 1.886386,0.16327 0.305481,0.79607 -0.237965,1.31124 -1.383217,1.31124 -1.037512,0 -1.886386,-0.0735 -1.886386,-0.16327 z m 6.5,-1.40816 c -0.339919,-0.55 -0.141476,-1 0.440983,-1 0.582459,0 1.059017,0.45 1.059017,1 0,0.55 -0.198442,1 -0.440983,1 -0.242541,0 -0.719098,-0.45 -1.059017,-1 z m 67,-4 c -1.63041,-0.70061 -1.68751,-0.87242 -0.30902,-0.92971 0.93004,-0.0387 1.9691,0.37971 2.30902,0.92971 0.71066,1.14988 0.67591,1.14988 -2,0 z m -93.041119,-1.06653 c -0.362533,-0.58659 -0.444683,-1.281 -0.182555,-1.54313 0.262128,-0.26213 0.743066,0.21781 1.068751,1.06653 0.676184,1.76211 0.09985,2.07206 -0.886196,0.4766 z m 98.105409,-2.2266 c 0.37553,-0.98622 0.93469,-1.54122 1.24258,-1.23333 0.30789,0.30789 6.4e-4,1.11479 -0.68278,1.79313 -0.98762,0.98026 -1.10248,0.8654 -0.5598,-0.5598 z m 0,-4.41374 c -0.54268,-1.4252 -0.42782,-1.54006 0.5598,-0.5598 0.68342,0.67834 0.99067,1.48524 0.68278,1.79313 -0.30789,0.30789 -0.86705,-0.24711 -1.24258,-1.23333 z m -105.56429,-0.29313 c 0,-0.55 0.476558,-1 1.059017,-1 0.582459,0 0.780902,0.45 0.440983,1 -0.339919,0.55 -0.816476,1 -1.059017,1 -0.242541,0 -0.440983,-0.45 -0.440983,-1 z m 102.75,-2.83333 c 2.04906,-2.14664 2.5417,-2.09042 1.66655,0.1902 -0.34679,0.90372 -1.25738,1.64313 -2.02354,1.64313 -1.06087,0 -0.97575,-0.43713 0.35699,-1.83333 z m -83.671053,-1.75 c 0.04798,-1.16495 0.284941,-1.4019 0.604167,-0.60417 0.288871,0.72187 0.253344,1.58438 -0.07895,1.91667 -0.332292,0.33229 -0.568641,-0.25834 -0.52522,-1.3125 z m -21.578947,-0.41667 c -0.339919,-0.55 -0.168034,-1 0.381966,-1 0.55,0 1.278115,0.45 1.618034,1 0.339919,0.55 0.168034,1 -0.381966,1 -0.55,0 -1.278115,-0.45 -1.618034,-1 z m 104.06429,-1.70687 c -0.54268,-1.4252 -0.42782,-1.54006 0.5598,-0.5598 0.68342,0.67834 0.99067,1.48524 0.68278,1.79313 -0.30789,0.30789 -0.86705,-0.24711 -1.24258,-1.23333 z m -107.06429,-2.29313 c 0.339919,-0.55 0.816476,-1 1.059017,-1 0.242541,0 0.440983,0.45 0.440983,1 0,0.55 -0.476558,1 -1.059017,1 -0.582459,0 -0.780902,-0.45 -0.440983,-1 z m 99,-0.0677 c -1.51921,-0.70429 -1.21872,-0.78849 1.25,-0.35026 2.01578,0.35782 3.25,0.16698 3.25,-0.50254 0,-0.59371 0.43588,-1.07946 0.96862,-1.07946 0.53273,0 0.70959,0.675 0.39301,1.5 -0.64104,1.67052 -2.84068,1.83273 -5.86163,0.43226 z M -97.411424,531.3952 c -0.30962,-0.80686 -0.369962,-2.04436 -0.134093,-2.75 0.235869,-0.70564 0.665915,-0.0455 0.955658,1.46701 0.565736,2.95322 0.09904,3.68204 -0.821565,1.28299 z m 3.125714,0.46701 c 0.339919,-0.55 1.041476,-1 1.559017,-1 0.517541,0 0.940983,0.45 0.940983,1 0,0.55 -0.701558,1 -1.559017,1 -0.857459,0 -1.280902,-0.45 -0.940983,-1 z m 81.3125,0.31689 c 0.72187,-0.28887 1.58437,-0.25335 1.91667,0.0789 0.33229,0.3323 -0.25834,0.56864 -1.3125,0.52522 -1.16495,-0.048 -1.4019,-0.28494 -0.60417,-0.60416 z m 32.61607,-1.31689 c 0,-1.29524 0.3381,-1.63333 0.98572,-0.98571 0.64761,0.64761 0.64761,1.32381 0,1.97142 -0.64762,0.64762 -0.98572,0.30953 -0.98572,-0.98571 z m -114.864277,-8.29313 c 0.375531,-0.98622 0.934692,-1.54122 1.242579,-1.23333 0.307887,0.30789 6.34e-4,1.11479 -0.682784,1.79313 -0.987616,0.98026 -1.10248,0.8654 -0.559795,-0.5598 z m -2.021588,-2.63777 c -0.316431,-0.512 -0.192988,-1.1672 0.274316,-1.45601 0.467305,-0.28881 0.849646,0.13009 0.849646,0.9309 0,1.68617 -0.315337,1.83349 -1.123962,0.52511 z M 15.64286,517.43364 c -1.05898,-0.77435 -1.70043,-1.63291 -1.42543,-1.90791 0.275,-0.275 1.36645,0.13356 2.42543,0.90791 1.05899,0.77435 1.70043,1.63291 1.42543,1.90791 -0.275,0.275 -1.36644,-0.13356 -2.42543,-0.90791 z m -111.083493,-1.11456 c -0.325685,-0.84872 -0.368713,-1.76657 -0.09562,-2.03966 0.273094,-0.2731 0.736558,0.42131 1.029919,1.54313 0.62315,2.38293 -0.06922,2.75089 -0.934299,0.49653 z m 7.654923,-5.95687 c 0.684689,-0.825 1.671932,-1.5 2.193873,-1.5 0.521941,0 0.273984,0.675 -0.551016,1.5 -0.825,0.825 -1.812243,1.5 -2.193873,1.5 -0.38163,0 -0.133673,-0.675 0.551016,-1.5 z m 4.356199,-1.99409 c -0.07909,-1.37097 0.258409,-2.24409 0.75,-1.94028 1.080263,0.66764 1.202443,4.43466 0.143801,4.43366 -0.4125,-3.8e-4 -0.814711,-1.12241 -0.893801,-2.49338 z M 18.29324,505.27888 c 0.048,-1.16495 0.28494,-1.4019 0.60416,-0.60417 0.28887,0.72188 0.25335,1.58438 -0.0789,1.91667 -0.3323,0.33229 -0.56864,-0.25834 -0.52522,-1.3125 z m -101.638257,-1.51263 c -0.372538,-0.60278 0.138758,-1.84028 1.136214,-2.75 1.706646,-1.55653 1.73215,-1.54638 0.432627,0.17217 -1.178767,1.55887 -1.170749,1.95922 0.05477,2.73469 0.901175,0.57024 0.992285,0.91418 0.244715,0.92379 -0.655041,0.008 -1.495787,-0.47787 -1.868324,-1.08065 z m 98.351047,-0.58023 c 1.05565,-0.42357 1.05565,-0.82037 0,-2.17106 -1.15236,-1.47442 -1.1041,-1.50565 0.44725,-0.28944 1.81727,1.42467 1.50026,3.19352 -0.54801,3.05774 -0.81746,-0.0542 -0.78586,-0.2415 0.10076,-0.59724 z m -3.79174,-4.32381 c -0.90129,-0.58246 -1.02463,-0.97549 -0.30902,-0.98469 0.65504,-0.008 1.4691,0.43469 1.80902,0.98469 0.7673,1.24153 0.42112,1.24153 -1.5,0 z m -95.4283,-3.75 c 0.497768,-0.4125 1.185144,-1.12523 1.527503,-1.58385 0.342358,-0.45861 0.89597,-0.12111 1.230249,0.75 0.437607,1.14039 0.0099,1.58385 -1.527503,1.58385 -1.174405,0 -1.728017,-0.3375 -1.230249,-0.75 z m 96.4283,0.37244 c 0,-0.20765 0.76138,-0.99515 1.69196,-1.75 0.93058,-0.75484 1.37777,-0.84838 0.99377,-0.20785 -0.38401,0.64052 -0.13289,1.3925 0.55804,1.67105 0.69093,0.27856 0.24373,0.54199 -0.99377,0.58541 -1.2375,0.0434 -2.25,-0.0909 -2.25,-0.29861 z m -90.5,-3.62244 c 0.339919,-0.55 0.816476,-1 1.059017,-1 0.242541,0 0.440983,0.45 0.440983,1 0,0.55 -0.476558,1 -1.059017,1 -0.582459,0 -0.780902,-0.45 -0.440983,-1 z m 89.51531,-1.75 c 0.009,-1.07943 0.29683,-1.32848 0.75,-0.64994 0.40408,0.60503 1.40969,1.357 2.23469,1.67105 1.00229,0.38154 0.75344,0.59719 -0.75,0.64994 -1.51164,0.053 -2.24497,-0.49533 -2.23469,-1.67105 z m -85.936363,-1.83333 c 0.04798,-1.16495 0.284941,-1.4019 0.604167,-0.60417 0.288871,0.72188 0.253344,1.58438 -0.07895,1.91667 -0.332292,0.33229 -0.568641,-0.25834 -0.52522,-1.3125 z M 5.21429,484.92123 c 0,-0.51754 0.44485,-1.21592 0.98855,-1.55194 0.56686,-0.35034 0.7345,0.0511 0.39301,0.94098 -0.66479,1.73242 -1.38156,2.04939 -1.38156,0.61096 z m -78,-1.54182 c 0,-0.33045 0.955534,-1.59451 2.123409,-2.80901 l 2.12341,-2.20819 -1.128787,2.19431 c -1.117008,2.1714 -3.118032,3.98302 -3.118032,2.82289 z m 78.5,-2.5172 c 0.33992,-0.55 0.81648,-1 1.05902,-1 0.24254,0 0.44098,0.45 0.44098,1 0,0.55 -0.47656,1 -1.05902,1 -0.58246,0 -0.7809,-0.45 -0.44098,-1 z m -72.770184,-2.07482 c 0.600866,-2.29771 0.87933,-2.38611 1.600053,-0.50794 0.299115,0.77948 -0.05181,1.64582 -0.779826,1.92518 -0.903666,0.34677 -1.163927,-0.10292 -0.820227,-1.41724 z m -1.66643,-5.05273 c -0.0858,-2.20304 2.434175,-4.14305 4.638575,-3.57103 1.393211,0.36153 1.284196,0.4927 -0.484185,0.58258 -1.363433,0.0693 -2.646319,1.02182 -3.186614,2.366 -0.612016,1.52262 -0.924881,1.72384 -0.967776,0.62245 z M 8.42644,471.8303 c -1.79091,-2.8677 -1.47308,-3.78563 0.38985,-1.12593 0.8811,1.25795 1.42656,2.46261 1.21214,2.67703 -0.21442,0.21442 -0.93532,-0.48358 -1.60199,-1.5511 z m -3.09725,-5.36101 c -1.7588,-0.9749 -2.04725,-1.53085 -1.09851,-2.11721 1.00611,-0.62181 0.92414,-1.06019 -0.37599,-2.01087 -1.48813,-1.08814 -1.50162,-1.34929 -0.1286,-2.4888 1.2768,-1.05964 1.43489,-1.01485 0.94292,0.26721 -0.32509,0.84716 -0.10305,1.8419 0.49342,2.21054 0.59647,0.36864 0.80708,1.11909 0.46803,1.66768 -0.33904,0.54859 0.21612,1.62819 1.23369,2.3991 2.32947,1.7648 1.58194,1.80003 -1.53496,0.0724 z m -63.639193,-8.58172 c 1.636638,-1.0788 3.29251,-2.76334 3.679714,-3.74341 0.631229,-1.59773 0.711275,-1.6069 0.774294,-0.0886 0.03866,0.93131 -0.826852,2.32168 -1.923354,3.08969 -1.096501,0.76802 -1.696501,1.69354 -1.333333,2.05671 0.363168,0.36317 -0.427195,0.65734 -1.756361,0.65372 -2.366846,-0.007 -2.355322,-0.047 0.55904,-1.96805 z m 55.306923,-0.33178 c 1.38442,-0.62369 2.64191,-0.66735 3.1957,-0.11095 0.55293,0.55552 -0.34743,0.96113 -2.28263,1.02832 -2.97515,0.10329 -3.03817,0.04 -0.91307,-0.91737 z m -4.78263,-0.69358 c -1.2819,-0.82843 -1.24555,-0.9716 0.25,-0.98469 0.9625,-0.008 1.75,0.43469 1.75,0.98469 0,1.21961 -0.11279,1.21961 -2,0 z m 3.5,-3 c -0.33992,-0.55 -0.36097,-1.41594 -0.0468,-1.92432 0.31419,-0.50837 -0.11807,-1.13757 -0.96059,-1.39821 -1.18448,-0.36643 -1.14927,-0.44028 0.15528,-0.32568 0.98186,0.0863 1.75626,1.08878 1.85249,2.39821 0.18138,2.46812 -0.0607,2.77055 -1.00041,1.25 z m -54,-4 c -0.339919,-0.55 0.110081,-1 1,-1 0.889919,0 1.339919,0.45 1,1 -0.339919,0.55 -0.789919,1 -1,1 -0.210081,0 -0.660081,-0.45 -1,-1 z m -0.102092,-4.50536 c 0.122286,-0.83319 0.84858,-2.07283 1.613987,-2.75476 1.161577,-1.0349 1.194403,-0.97669 0.198553,0.35213 -0.656203,0.8756 -0.942061,1.84304 -0.635241,2.14986 0.30682,0.30682 0.117419,0.83006 -0.420891,1.16276 -0.538311,0.33269 -0.878694,-0.0768 -0.756408,-0.90999 z m 46.685422,-0.77761 c 0.22917,-0.15563 1.31667,-0.94313 2.41667,-1.75 1.85001,-1.35701 1.89707,-1.33579 0.62756,0.28297 -0.75485,0.9625 -1.84235,1.75 -2.41667,1.75 -0.57432,0 -0.85672,-0.12734 -0.62756,-0.28297 z m -1.7217,-4.21703 c 0.35684,-0.92992 -0.005,-1.5 -0.952032,-1.5 -0.840197,0 -1.249517,-0.45 -0.909598,-1 0.339919,-0.55 -0.335081,-1 -1.5,-1 -1.164919,0 -1.852065,-0.43035 -1.526992,-0.95633 1.141302,-1.84666 5.852052,1.28144 5.490832,3.64611 -0.0615,0.40267 0.70896,1.05557 1.71216,1.45089 1.54983,0.61072 1.46971,0.72932 -0.53299,0.78904 -1.69898,0.0507 -2.196293,-0.34847 -1.78138,-1.42971 z m -38.86163,-0.5 c 0.339919,-0.55 0.816476,-1 1.059017,-1 0.242541,0 0.440983,0.45 0.440983,1 0,0.55 -0.476558,1 -1.059017,1 -0.582459,0 -0.780902,-0.45 -0.440983,-1 z m 23.759606,-4.89852 c 0.853923,-2.27724 1.348225,-2.77155 1.586481,-1.58648 0.190348,0.94677 -0.367829,2.43531 -1.240394,3.30788 -1.448641,1.44864 -1.47871,1.29908 -0.346087,-1.7214 z m -13.759606,0.89852 c -0.339919,-0.55 -0.141476,-1 0.440983,-1 0.582459,0 1.059017,0.45 1.059017,1 0,0.55 -0.198442,1 -0.440983,1 -0.242541,0 -0.719098,-0.45 -1.059017,-1 z m 6.064761,-3.89522 c -0.304301,-0.49236 0.09622,-1.14445 0.890055,-1.44907 0.962773,-0.36945 1.258189,-0.0714 0.887268,0.89522 -0.644606,1.67981 -1.010897,1.79396 -1.777323,0.55385 z"
             style="fill:#0f1805"
             inkscape:connector-curvature="0" />
        </g>
      </g>
    </g>
    <text
       xml:space="preserve"
       style="font-style:normal;font-weight:normal;font-size:6.3499999px;line-height:6.61458302px;font-family:Sans;letter-spacing:0px;word-spacing:0px;fill:#000000;fill-opacity:1;stroke:none;stroke-width:0.26458332px;stroke-linecap:butt;stroke-linejoin:miter;stroke-opacity:1"
       x="107.01452"
       y="118.28374"
       id="text4604"><tspan
         sodipodi:role="line"
         id="tspan4602"
         x="107.01452"
         y="118.28374"
         style="stroke-width:0.26458332px">^</tspan></text>
    <path
       style="fill:none;fill-rule:evenodd;stroke:#000000;stroke-width:0.26499999;stroke-linecap:butt;stroke-linejoin:miter;stroke-miterlimit:4;stroke-dasharray:none;stroke-opacity:1;marker-end:url(#Arrow1Lend)"
       d="m 120.63581,110.09551 c -3.6082,-0.9722 -9.37843,-0.69141 -14.39964,-4.05509"
       id="path4606"
       inkscape:connector-curvature="0"
       sodipodi:nodetypes="cc" />
    <path
       style="fill:none;fill-rule:evenodd;stroke:#000000;stroke-width:0.26811481px;stroke-linecap:butt;stroke-linejoin:miter;stroke-opacity:1;marker-end:url(#marker5590)"
       d="m 105.25221,69.420322 39.41304,-0.02269"
       id="path5540"
       inkscape:connector-curvature="0"
       sodipodi:nodetypes="cc" />
    <text
       xml:space="preserve"
       style="font-style:normal;font-weight:normal;font-size:6.3499999px;line-height:6.61458302px;font-family:Sans;letter-spacing:0px;word-spacing:0px;fill:#000000;fill-opacity:1;stroke:none;stroke-width:0.26458332px;stroke-linecap:butt;stroke-linejoin:miter;stroke-opacity:1"
       x="115.13709"
       y="67.648163"
       id="text5630"><tspan
         sodipodi:role="line"
         id="tspan5628"
         x="115.13709"
         y="67.648163"
         style="stroke-width:0.26458332px">r(z)</tspan></text>
    <path
       style="opacity:1;fill:#b9b9ff;fill-opacity:0.20866143;fill-rule:evenodd;stroke:#000000;stroke-width:0.5;stroke-miterlimit:4;stroke-dasharray:none;stroke-dashoffset:0;stroke-opacity:1"
       id="path5727"
       sodipodi:type="arc"
       sodipodi:cx="104.0052"
       sodipodi:cy="69.382736"
       sodipodi:rx="41.564907"
       sodipodi:ry="3.9084864"
       sodipodi:start="4.3483482"
       sodipodi:end="4.34331"
       d="m 89.205889,65.73039 a 41.564907,3.9084864 0 0 1 53.621621,2.256118 41.564907,3.9084864 0 0 1 -23.9252,5.045058 41.564907,3.9084864 0 0 1 -53.681889,-2.24341 41.564907,3.9084864 0 0 1 23.789968,-5.050709"
       sodipodi:open="true" />
    <path
       sodipodi:open="true"
       d="m 90.83263,75.988146 a 38.1702,3.0434585 0 0 1 49.24222,1.756793 38.1702,3.0434585 0 0 1 -21.97117,3.928483 38.1702,3.0434585 0 0 1 -49.297567,-1.746897 38.1702,3.0434585 0 0 1 21.846984,-3.932884"
       sodipodi:end="4.34331"
       sodipodi:start="4.3483482"
       sodipodi:ry="3.0434585"
       sodipodi:rx="38.1702"
       sodipodi:cy="78.832153"
       sodipodi:cx="104.42325"
       sodipodi:type="arc"
       id="path5738"
       style="opacity:1;fill:none;fill-opacity:1;fill-rule:evenodd;stroke:#000000;stroke-width:0.49767962;stroke-miterlimit:4;stroke-dasharray:1.99071853, 0.49767963;stroke-dashoffset:0;stroke-opacity:1" />
    <text
       xml:space="preserve"
       style="font-style:normal;font-weight:normal;font-size:6.3499999px;line-height:6.61458302px;font-family:Sans;letter-spacing:0px;word-spacing:0px;fill:#000000;fill-opacity:1;stroke:none;stroke-width:0.26458332px;stroke-linecap:butt;stroke-linejoin:miter;stroke-opacity:1"
       x="86.74556"
       y="98.052223"
       id="text5892"><tspan
         sodipodi:role="line"
         id="tspan5890"
         x="86.74556"
         y="98.052223"
         style="stroke-width:0.26458332px">V</tspan></text>
    <text
       xml:space="preserve"
       style="font-style:normal;font-weight:normal;font-size:6.3499999px;line-height:6.61458302px;font-family:Sans;letter-spacing:0px;word-spacing:0px;fill:#000000;fill-opacity:1;stroke:none;stroke-width:0.26458332px;stroke-linecap:butt;stroke-linejoin:miter;stroke-opacity:1"
       x="65.673363"
       y="76.63987"
       id="text5896"><tspan
         sodipodi:role="line"
         id="tspan5894"
         x="65.673363"
         y="76.63987"
         style="stroke-width:0.26458332px">dz</tspan></text>
    <path
       style="fill:#b9b9ff;fill-opacity:0.20866143;fill-rule:evenodd;stroke:#000000;stroke-width:0.5;stroke-linecap:butt;stroke-linejoin:miter;stroke-miterlimit:4;stroke-dasharray:none;stroke-opacity:1"
       d="m 62.460565,69.83631 3.874257,9.449403 c 9.680696,3.340344 70.737448,3.56498 76.327568,-0.212608 l 3.25491,-9.675471 c 2.54769,3.371362 -67.633878,6.710264 -83.456735,0.438676 z"
       id="path5898"
       inkscape:connector-curvature="0"
       sodipodi:nodetypes="ccccc" />
    <path
       style="fill:none;fill-rule:evenodd;stroke:#000000;stroke-width:0.26458332px;stroke-linecap:butt;stroke-linejoin:miter;stroke-opacity:1;marker-start:url(#Arrow1Mstart);marker-end:url(#Arrow1Mend)"
       d="m 75.637275,72.760866 v 7.149459"
       id="path5900"
       inkscape:connector-curvature="0" />
  </g>
</svg>
